<?xml version="1.0" encoding="UTF-8" standalone="no"?>
<!-- Created with Inkscape (http://www.inkscape.org/) -->

<svg
   xmlns:dc="http://purl.org/dc/elements/1.1/"
   xmlns:cc="http://creativecommons.org/ns#"
   xmlns:rdf="http://www.w3.org/1999/02/22-rdf-syntax-ns#"
   xmlns:svg="http://www.w3.org/2000/svg"
   xmlns="http://www.w3.org/2000/svg"
   xmlns:sodipodi="http://sodipodi.sourceforge.net/DTD/sodipodi-0.dtd"
   xmlns:inkscape="http://www.inkscape.org/namespaces/inkscape"
   width="320"
   height="320"
   viewBox="0 0 84.666664 84.666669"
   version="1.1"
   id="svg8"
   inkscape:version="0.92.1 r15371"
   sodipodi:docname="starfruit.svg">
  <defs
     id="defs2" />
  <sodipodi:namedview
     id="base"
     pagecolor="#ffffff"
     bordercolor="#666666"
     borderopacity="1.0"
     inkscape:pageopacity="0.0"
     inkscape:pageshadow="2"
     inkscape:zoom="1.979899"
     inkscape:cx="247.49351"
     inkscape:cy="115.53288"
     inkscape:document-units="mm"
     inkscape:current-layer="layer1"
     showgrid="false"
     units="px"
     inkscape:window-width="1858"
     inkscape:window-height="1057"
     inkscape:window-x="1078"
     inkscape:window-y="-8"
     inkscape:window-maximized="1" />
  <metadata
     id="metadata5">
    <rdf:RDF>
      <cc:Work
         rdf:about="">
        <dc:format>image/svg+xml</dc:format>
        <dc:type
           rdf:resource="http://purl.org/dc/dcmitype/StillImage" />
        <dc:title></dc:title>
      </cc:Work>
    </rdf:RDF>
  </metadata>
  <g
     inkscape:label="Layer 1"
     inkscape:groupmode="layer"
     id="layer1"
     transform="translate(0,-212.33332)">
    <g
       id="g4496"
       transform="matrix(0.98432396,0,0,0.97173697,0.93502634,7.4551124)"
       style="stroke:#a48c00;stroke-width:1.89961994;stroke-linecap:round;stroke-linejoin:round;stroke-miterlimit:4;stroke-dasharray:none;stroke-opacity:1;paint-order:normal">
      <path
         style="fill:#e7e254;stroke:#a48c00;stroke-width:1.89961994;stroke-linecap:round;stroke-linejoin:round;stroke-miterlimit:4;stroke-dasharray:none;stroke-opacity:1;paint-order:normal"
         d="m 19.05,296.77681 c 0,-0.12275 0.353914,-2.54118 0.786475,-5.3743 0.796289,-5.2154 1.127122,-8.67856 1.593838,-16.68431 0.141799,-2.43232 0.38914,-5.26881 0.549649,-6.30331 0.3541,-2.28223 0.20708,-2.51108 -2.484919,-3.86794 -1.852652,-0.93379 -9.8266078,-7.39517 -12.9799866,-10.51781 -0.8950235,-0.8863 -2.389178,-2.22969 -3.3203431,-2.98532 C 1.7891498,249.90323 1.3741985,249.69546 0.75084308,249.82013 0.08610366,249.95307 0,249.89435 0,249.30807 c 0,-0.83443 0.57832898,-2.2339 1.3047326,-3.15726 0.6543252,-0.83173 3.0450254,-1.80584 8.2454082,-3.35965 8.1939002,-2.44825 12.9051922,-3.08097 17.0404842,-2.28854 3.649298,0.6993 3.707048,0.65923 4.08727,-2.83539 0.195276,-1.79479 0.677948,-3.7893 1.586439,-6.55554 0.740797,-2.25563 1.479913,-5.14624 1.708248,-6.68078 0.221364,-1.48769 0.833689,-4.00628 1.360726,-5.59688 0.721095,-2.17627 0.969214,-3.38765 1.002572,-4.89479 l 0.04433,-2.0028 0.79375,-0.0913 c 1.935665,-0.22262 3.389156,0.45549 6.652331,3.10359 4.01165,3.25549 4.542753,3.79769 7.157461,7.30696 3.535307,4.74484 5.637083,9.38628 5.637083,12.4486 0,1.29889 0.694153,3.46335 1.16917,3.64563 0.187211,0.0718 1.779894,0.0387 3.539294,-0.0736 1.759402,-0.11231 3.82529,-0.10518 4.590865,0.0159 1.652175,0.26117 6.460461,2.13915 8.212492,3.20757 0.681969,0.41588 2.184588,1.10089 3.339153,1.52226 1.154562,0.42136 2.547969,1.07065 3.096456,1.44286 0.561861,0.38129 1.371282,0.67675 1.853969,0.67675 0.942264,0 1.326661,0.32498 1.566567,1.3244 0.131802,0.54907 -0.202851,1.08237 -1.991435,3.17352 -5.000476,5.84638 -8.982265,9.44077 -14.498465,13.08786 -2.668823,1.76453 -2.670718,1.79898 -0.402707,7.32686 2.397837,5.8443 3.258937,8.76229 3.696412,12.5259 0.484431,4.16759 0.476912,5.69747 -0.03157,6.42342 -0.423714,0.60494 -1.142301,0.76592 -1.585727,0.35525 -0.265877,-0.24623 -4.711832,-1.88334 -12.164999,-4.47945 -5.615551,-1.95602 -6.898736,-2.60413 -8.968875,-4.52998 -1.985762,-1.84735 -2.942654,-2.50196 -3.400462,-2.32629 -0.188254,0.0722 -1.2905,1.37617 -2.449439,2.89762 -2.959179,3.8848 -6.749251,6.89651 -12.124439,9.63448 -0.998355,0.50854 -2.577536,1.57133 -3.50929,2.36176 -0.931755,0.79043 -1.81422,1.43715 -1.961033,1.43715 -0.146813,0 -0.770288,0.45935 -1.3855,1.02077 -0.615212,0.56143 -1.378631,1.15674 -1.696486,1.32292 -0.670187,0.35038 -2.46479,0.40787 -2.46479,0.079 z"
         id="path4502"
         inkscape:connector-curvature="0" />
      <path
         style="display:inline;fill:#d6cf28;stroke:#a48c00;stroke-width:1.89961994;stroke-linecap:round;stroke-linejoin:round;stroke-miterlimit:4;stroke-dasharray:none;stroke-opacity:1;paint-order:normal"
         d="m 19.173721,296.53696 c 0.388364,-0.99715 2.257529,-12.66331 2.257529,-14.09009 0,-0.4845 0.0893,-0.79151 0.198438,-0.68223 0.10914,0.10928 0.198437,0.69265 0.198437,1.29639 0,0.83474 0.110918,1.11926 0.463021,1.18773 0.278332,0.0541 0.463021,-0.0713 0.463021,-0.3145 0,-0.22249 0.271231,-0.80421 0.602737,-1.29271 0.331505,-0.4885 0.769651,-1.39394 0.973658,-2.01209 0.332218,-1.00663 0.323419,-1.20432 -0.08433,-1.89458 -0.424352,-0.71837 -0.42561,-0.81592 -0.01853,-1.4372 0.240198,-0.36659 0.362048,-0.86113 0.270777,-1.09898 -0.223628,-0.58277 0.298768,-1.15914 1.050589,-1.15914 1.005481,0 0.972929,-0.43933 -0.07852,-1.05969 l -0.986988,-0.58234 0.619819,-0.5019 c 0.3409,-0.27604 0.800898,-0.5019 1.022219,-0.5019 0.316983,0 0.372156,-0.22548 0.259927,-1.06222 -0.120731,-0.90012 -0.05539,-1.10732 0.428184,-1.35776 1.458479,-0.75533 3.084198,-1.93446 3.084198,-2.23696 0,-0.18396 0.267891,-0.41572 0.595312,-0.51501 0.327422,-0.0993 0.833438,-0.39079 1.12448,-0.64776 0.291041,-0.25697 1.094404,-0.54819 1.785249,-0.64715 1.353093,-0.19384 1.60755,-0.46653 1.888096,-2.02338 0.115782,-0.64254 0.38953,-1.06651 0.846518,-1.31109 0.376333,-0.20141 0.966418,-0.97662 1.332627,-1.75073 0.622446,-1.31574 0.634246,-1.42435 0.222973,-2.05204 -0.238845,-0.36452 -0.631968,-0.72109 -0.873612,-0.79239 -0.880171,-0.25968 -4.180068,-0.21647 -5.598726,0.0733 -0.800365,0.16348 -2.043851,0.4177 -2.763301,0.56493 -1.362689,0.27887 -1.923142,0.0791 -1.665041,-0.59351 0.07691,-0.20043 0.896395,-0.57926 1.821071,-0.84184 0.924677,-0.26258 1.830057,-0.51958 2.011958,-0.5711 0.707374,-0.20038 0.262771,-0.54257 -1.322917,-1.01817 -0.909505,-0.2728 -2.248958,-0.54668 -2.976562,-0.60862 -0.727604,-0.0619 -2.037292,-0.38755 -2.910417,-0.72357 -0.873125,-0.33602 -2.220317,-0.75636 -2.99376,-0.93409 -0.773443,-0.17773 -1.754855,-0.49705 -2.180915,-0.7096 -0.42606,-0.21254 -0.996824,-0.31593 -1.268364,-0.22975 -0.286001,0.0908 -0.634368,-0.0128 -0.828045,-0.24615 -0.183884,-0.22157 -0.602443,-0.40285 -0.930131,-0.40285 -0.327688,0 -1.116781,-0.18392 -1.75354,-0.40872 -0.63676,-0.2248 -1.434354,-0.3394 -1.772432,-0.25468 -0.545798,0.13678 -0.606378,0.28917 -0.540543,1.35974 0.08953,1.45585 -0.526968,2.04039 -1.3583727,1.28798 -0.3185115,-0.28825 -0.6907043,-0.38119 -1.0587419,-0.26438 -0.3936941,0.12496 -0.6806057,0.0309 -0.9365879,-0.30688 -0.4849069,-0.63994 -0.4843791,-0.34053 0.00106,0.59514 0.5895049,1.13627 0.2488314,1.11371 -0.9877676,-0.0654 -0.6154127,-0.58682 -1.8757707,-1.65095 -2.8007954,-2.36475 -2.7591763,-2.12913 -2.6381481,-2.06193 -3.06913053,-1.70424 -0.58575062,0.48613 -1.01328287,0.0575 -0.83446114,-0.83662 0.27481227,-1.37411 1.50448207,-2.76957 3.07190387,-3.48609 2.4809908,-1.13415 12.2701973,-3.87249 13.8282763,-3.8682 0.546523,0.002 0.535549,0.0308 -0.144273,0.38543 -0.404683,0.21109 -0.902023,0.32001 -1.1052,0.24205 -0.203176,-0.078 -0.929003,0.10578 -1.612948,0.40832 -0.683946,0.30254 -1.39997,0.55007 -1.591165,0.55007 -0.557569,0 -0.739234,0.54677 -0.320718,0.96528 0.313408,0.31341 0.515029,0.32625 1.080146,0.0688 0.630854,-0.28743 0.766344,-0.24 1.471917,0.51532 0.852383,0.91248 1.711674,1.05805 2.594693,0.43956 0.34901,-0.24446 1.064733,-0.37193 1.898871,-0.33819 1.026087,0.0415 1.524427,-0.0831 2.133854,-0.5337 0.437316,-0.32333 0.984448,-0.58786 1.215848,-0.58786 0.694382,0 2.053992,0.80587 3.07396,1.82201 2.44382,2.43464 4.395969,4.10785 5.169991,4.43125 0.465061,0.19432 0.920264,0.47417 1.011563,0.6219 0.0913,0.14772 0.332994,0.26859 0.537102,0.26859 0.204107,0 0.923041,0.53642 1.597631,1.19204 0.674587,0.65563 1.542362,1.25959 1.928384,1.34215 0.386024,0.0825 1.636334,0.57516 2.778471,1.09468 l 2.076612,0.94458 0.6282,-0.76537 c 0.363014,-0.44228 0.623102,-1.10044 0.616122,-1.55912 -0.0066,-0.43657 0.07405,-2.07367 0.179321,-3.63802 0.13325,-1.9801 0.104495,-2.84427 -0.09464,-2.84427 -0.157324,0 -0.324094,0.26789 -0.370594,0.59531 -0.05883,0.41421 -0.291412,0.61938 -0.764535,0.67444 -0.564123,0.0656 -0.818128,-0.1431 -1.490723,-1.22508 -0.558332,-0.89817 -0.769673,-1.519 -0.678844,-1.99414 0.09734,-0.50921 -0.07801,-0.929 -0.669391,-1.60255 -0.532442,-0.60642 -0.908169,-1.42861 -1.119873,-2.45061 -0.175225,-0.8459 -0.497517,-2.03942 -0.7162,-2.65226 -0.459208,-1.28688 -0.272682,-4.56418 0.325379,-5.71695 0.195786,-0.37738 0.292119,-0.93033 0.214072,-1.22878 -0.07804,-0.29845 0.0057,-0.89911 0.186219,-1.33479 0.398708,-0.96257 0.05862,-1.51209 -1.01241,-1.63587 -0.830527,-0.096 -0.967801,-0.82671 -0.179075,-0.95324 0.291042,-0.0467 0.900575,-0.27539 1.354518,-0.50821 1.384602,-0.71015 1.745973,-0.35407 1.534811,1.51234 -0.137329,1.21384 -0.07091,1.88081 0.278387,2.79543 0.645948,1.69139 0.536906,4.94542 -0.196824,5.87367 -0.405267,0.51271 0.01593,3.74526 0.614104,4.71314 0.283826,0.45924 0.516046,1.02411 0.516046,1.25527 0,0.23117 0.474765,0.93149 1.055034,1.55627 l 1.055036,1.13598 0.0033,-0.972 c 0.0019,-0.5346 -0.132705,-1.56121 -0.298935,-2.28135 -0.220831,-0.9567 -0.224268,-1.533 -0.01275,-2.13974 0.223634,-0.64152 0.202481,-1.07697 -0.093,-1.91446 -0.32235,-0.9136 -0.620096,-5.72909 -0.717884,-11.61016 -0.01521,-0.91483 -0.458943,-4.52876 -0.625366,-5.09323 -0.07508,-0.25466 -0.292505,-0.46302 -0.483161,-0.46302 -0.562311,0 -0.999868,0.72042 -1.331272,2.19189 -0.242753,1.07786 -0.422273,1.37999 -0.819965,1.37999 -0.444778,0 -0.510564,-0.20104 -0.520224,-1.58978 -0.0061,-0.87438 -0.09689,-1.72866 -0.201798,-1.8984 -0.301363,-0.48762 0.376074,-1.6736 1.19906,-2.09918 0.913358,-0.47232 0.807143,-0.69864 -0.535903,-1.14188 l -1.031433,-0.34041 0.02598,-2.68288 0.02599,-2.68289 0.851419,-0.0823 c 1.301739,-0.12579 2.997152,0.77306 5.480727,2.90568 2.101749,1.80476 2.684378,2.70392 1.064178,1.64232 -0.686366,-0.44972 -0.718251,-0.44583 -1.161579,0.1419 -0.430938,0.57131 -0.480677,0.57949 -0.910495,0.14967 -0.25006,-0.25006 -0.48441,-0.41072 -0.520777,-0.35702 -0.664162,0.98083 -0.678307,1.63745 -0.06368,2.95637 0.816139,1.75134 1.097952,2.8905 1.485501,6.00482 0.172032,1.38245 0.486211,2.93026 0.698179,3.43958 0.244936,0.58854 0.369684,1.69747 0.342287,3.04271 -0.04308,2.11533 0.170915,4.4108 0.48098,5.15938 0.09041,0.21828 0.18087,1.05171 0.201018,1.85208 0.06282,2.49569 0.398467,4.10722 1.017016,4.88295 0.500427,0.62759 0.678362,0.69949 1.131271,0.4571 0.295595,-0.1582 0.865309,-0.71748 1.266031,-1.24286 0.654497,-0.85808 0.688345,-1.00062 0.332859,-1.40173 -0.494369,-0.5578 -0.248566,-2.4843 0.453194,-3.55199 0.367792,-0.55957 0.484645,-1.31152 0.513945,-3.30729 0.02085,-1.42068 -0.0543,-2.91309 -0.167013,-3.31647 -0.254431,-0.91054 0.412922,-1.28902 1.085348,-0.61554 0.67565,0.6767 0.491125,5.77851 -0.30888,8.53996 -0.373928,1.29072 -0.529506,2.31831 -0.413462,2.73087 0.355079,1.26235 0.251844,2.28744 -0.27872,2.76759 -0.306057,0.27698 -0.58044,0.96943 -0.671499,1.69465 -0.08469,0.67446 -0.338879,1.9616 -0.564872,2.8603 -0.541489,2.15332 -0.352129,2.73163 0.894439,2.73163 1.206223,0 3.164613,-0.93094 3.378933,-1.6062 0.166413,-0.52432 2.796712,-3.42089 3.106423,-3.42089 0.269465,0 1.85783,-1.12918 2.512203,-1.78594 0.326231,-0.32742 0.75329,-0.59531 0.949015,-0.59531 0.195729,0 0.577472,-0.24487 0.848321,-0.54415 0.338341,-0.37386 0.683548,-0.49619 1.103085,-0.3909 0.38332,0.0962 1.175567,-0.11628 2.128242,-0.57082 0.834686,-0.39825 1.7335,-0.68984 1.997363,-0.64798 0.263864,0.0419 0.747017,-0.099 1.073669,-0.31303 0.407717,-0.26715 0.733655,-0.31095 1.039638,-0.13971 0.245149,0.13719 0.595434,0.22991 0.778414,0.20604 0.721106,-0.0941 0.942624,0.0499 1.261531,0.81981 0.266102,0.64242 0.442249,0.76665 0.891995,0.62907 0.308229,-0.0943 0.694955,-0.27863 0.859391,-0.40967 0.39099,-0.31157 3.20467,0.0108 4.119658,0.47204 1.154178,0.58178 1.464704,0.41373 0.608451,-0.32928 -0.999969,-0.86772 -1.932202,-1.23313 -2.672175,-1.04741 -0.427834,0.10738 -0.863529,-0.13426 -1.692365,-0.93862 l -1.1162,-1.08324 0.888288,0.18669 c 0.488556,0.10268 1.364536,0.46929 1.946619,0.8147 1.615379,0.95857 3.649451,1.89268 5.207823,2.3916 0.773718,0.24772 1.761109,0.69674 2.1942,0.99783 0.433091,0.3011 1.304494,0.60946 1.936448,0.68526 0.857944,0.1029 1.249665,0.30537 1.546355,0.79927 0.389416,0.64826 0.348758,0.71296 -2.03671,3.24115 -1.393404,1.47677 -2.645711,2.57969 -2.929106,2.57969 -0.301633,0 -0.495052,0.1874 -0.495052,0.47966 0,0.26382 -0.366278,0.82936 -0.813953,1.25677 l -0.813951,0.77711 0.181176,-0.72761 c 0.163727,-0.65752 0.113032,-0.7276 -0.526357,-0.7276 -0.89322,0 -1.731081,0.43902 -1.731081,0.90704 0,0.48876 -0.597088,0.68046 -2.119408,0.68046 -0.73669,0 -1.437532,0.15515 -1.646994,0.36462 -0.200539,0.20053 -0.744826,0.44812 -1.209525,0.55018 -0.971624,0.21341 -1.070811,0.52714 -0.31574,0.99868 0.291042,0.18176 0.529167,0.51921 0.529167,0.74988 0,0.45258 1.057986,1.56997 1.486503,1.56997 0.143975,0 0.665676,-0.41672 1.15933,-0.92604 0.493654,-0.50932 1.071245,-0.92604 1.283533,-0.92604 0.57584,0 -0.273322,0.86115 -2.474158,2.50909 -2.690752,2.01477 -3.571875,2.40748 -3.571875,1.59195 0,-0.21828 0.178594,-0.39687 0.396875,-0.39687 0.699169,0 0.439878,-1.02251 -0.364813,-1.43863 -0.418928,-0.21664 -0.829445,-0.57046 -0.912262,-0.78628 -0.08281,-0.21581 -0.825079,-0.71148 -1.649473,-1.10148 -1.217113,-0.57579 -1.540905,-0.64113 -1.722337,-0.34756 -0.136115,0.22024 -0.07272,0.59156 0.162202,0.9501 0.212101,0.32371 0.385641,0.65534 0.385641,0.73696 0,0.28541 -1.460823,-0.61468 -2.089036,-1.28717 l -0.633828,-0.6785 0.699974,-0.26613 c 0.536167,-0.20385 0.699973,-0.44679 0.699973,-1.03812 0,-0.4246 -0.148828,-0.82326 -0.330729,-0.88591 -0.353253,-0.12166 -2.976811,-0.0425 -3.638021,0.1098 -0.408056,0.094 -0.685911,0.60732 -0.330729,0.61103 0.487172,0.005 2.229239,1.00168 2.363767,1.35225 0.195455,0.50935 0.04389,0.63507 -1.067972,0.88583 -1.000898,0.22574 -2.748751,-0.0751 -3.973471,-0.68393 -0.553241,-0.27503 -0.8534,-0.29956 -1.105474,-0.0904 -0.252433,0.2095 -0.548904,0.18226 -1.096121,-0.10072 -0.412552,-0.21333 -1.309116,-0.47171 -1.992363,-0.57417 -1.025911,-0.15385 -1.405466,-0.0854 -2.179325,0.39284 -1.085093,0.67063 -1.129657,1.0272 -0.330843,2.64719 0.432877,0.87787 0.875969,1.32372 1.708886,1.71951 0.618463,0.29388 1.12876,0.71305 1.133993,0.93149 0.01752,0.73128 1.163773,1.76069 3.269081,2.93585 1.148384,0.64102 2.65416,1.6715 3.346167,2.28996 0.692009,0.61846 1.44042,1.12448 1.663139,1.12448 0.524605,0 1.501682,1.2444 1.501682,1.91253 0,0.29574 0.227201,0.57767 0.529167,0.65664 0.339645,0.0888 0.529166,0.3609 0.529166,0.75967 0,0.34946 0.230368,0.74458 0.526535,0.90308 0.289591,0.15499 0.497951,0.3854 0.46302,0.51202 -0.08472,0.30711 0.109263,0.35253 0.63844,0.14946 0.240551,-0.0923 0.929246,0.0831 1.530427,0.38981 1.150622,0.587 1.604079,0.53094 1.604079,-0.19832 0,-0.93334 0.873371,0.82546 1.660297,3.34352 1.143101,3.65776 2.089957,11.13422 1.540193,12.16146 -0.324308,0.60597 -1.060133,0.75924 -1.505739,0.31363 -0.251412,-0.25141 -3.608708,-1.53354 -9.643528,-3.68279 -1.534171,-0.54638 -3.022452,-1.1286 -3.307292,-1.29381 -0.456163,-0.26459 -0.403481,-0.30135 0.441987,-0.30844 0.527931,-0.004 1.396375,0.17434 1.929873,0.39725 1.168329,0.48815 1.376881,0.38914 1.541402,-0.73181 0.111723,-0.76121 -0.02837,-1.00991 -1.196475,-2.12399 -0.727657,-0.69401 -1.634075,-1.33463 -2.014262,-1.42361 -0.873514,-0.20444 -2.41104,-1.63773 -2.41104,-2.24759 0,-0.836 0.498719,-0.79007 0.952654,0.0877 l 0.446024,0.86251 0.391265,-0.58928 c 0.531604,-0.80063 1.077101,-0.74121 1.269823,0.13833 0.08769,0.40018 0.199512,0.8614 0.248499,1.02492 0.04899,0.16353 0.532683,0.38055 1.074878,0.48226 1.039651,0.19504 1.425676,-0.0682 1.43364,-0.97771 0.005,-0.56953 -1.901939,-2.57999 -2.447126,-2.57999 -0.218038,0 -0.71428,-0.41672 -1.10276,-0.92604 -0.38848,-0.50933 -0.934204,-0.92605 -1.21272,-0.92605 -0.278516,0 -0.633833,-0.23812 -0.789594,-0.52916 -0.15576,-0.29104 -0.493413,-0.52917 -0.750337,-0.52917 -0.280392,0 -0.703604,-0.44952 -1.058661,-1.12448 -0.888566,-1.68914 -1.681173,-2.92346 -2.490481,-3.87841 -0.400182,-0.4722 -0.727604,-0.96847 -0.727604,-1.10283 0,-0.51279 -0.722394,-0.21446 -1.010192,0.41718 -0.440021,0.96575 -1.037535,0.82013 -1.357146,-0.33073 -0.34829,-1.25413 -0.353407,-2.10528 -0.01392,-2.3151 0.509254,-0.31474 0.255738,-0.95562 -0.815176,-2.06075 -0.593868,-0.61284 -1.25177,-1.44167 -1.462003,-1.84186 -0.586362,-1.11614 -1.559086,-0.97819 -2.724523,0.3864 -0.523282,0.6127 -0.909275,1.23778 -0.857761,1.38906 0.05151,0.15129 0.132244,1.01659 0.179401,1.9229 0.06697,1.28711 -0.01929,1.77756 -0.394065,2.24038 -0.410787,0.5073 -0.541258,0.54154 -0.907005,0.23799 -0.234961,-0.195 -0.429025,-0.48879 -0.431252,-0.65287 -0.0021,-0.16409 -0.106151,-0.45946 -0.230937,-0.65638 -0.323855,-0.51108 -1.235585,0.0259 -1.757463,1.03511 -0.426897,0.82554 -0.335775,1.30731 0.247267,1.30731 0.187139,0 0.549021,0.23069 0.804182,0.51264 0.372872,0.41202 0.423103,0.73659 0.255916,1.65364 -0.114411,0.62756 -0.186936,1.22649 -0.161171,1.33096 0.02577,0.10447 -0.118838,1.05697 -0.321339,2.11667 -0.202504,1.05969 -0.328409,2.51386 -0.279784,3.23149 0.05073,0.74879 -0.06315,1.59785 -0.267258,1.99255 -0.198533,0.38392 -0.265089,0.85949 -0.150649,1.07647 0.112755,0.21379 0.27794,0.77566 0.367075,1.2486 0.181774,0.96447 -0.167738,1.1243 -1.030906,0.47143 -1.172147,-0.88656 -1.257869,-0.0416 -0.08948,0.88204 0.589991,0.4664 0.990729,0.58606 1.57286,0.46964 0.429636,-0.0859 0.781156,-0.054 0.781156,0.071 0,0.78119 -6.26718,5.25625 -10.00047,7.14081 -0.873947,0.44117 -2.274109,1.40165 -3.11147,2.13441 -0.837363,0.73275 -1.618104,1.33228 -1.734982,1.33228 -0.116879,0 -1.065439,0.71438 -2.107911,1.5875 -1.520998,1.27392 -2.077518,1.5875 -2.817343,1.5875 -0.770347,0 -0.892287,-0.0761 -0.741604,-0.46302 z m 14.176918,-9.20106 c 0.429337,-0.22202 0.780611,-0.46118 0.780611,-0.53146 0,-0.23843 -1.452642,-1.76083 -1.918229,-2.01035 -0.417235,-0.22361 -0.463021,-0.0902 -0.463021,1.34867 0,1.77459 0.195059,1.91999 1.600639,1.19314 z m -5.040222,-0.39009 c 0,-0.14552 -0.0525,-0.26458 -0.116676,-0.26458 -0.06417,0 -0.190262,0.11906 -0.280199,0.26458 -0.08994,0.14553 -0.03743,0.26459 0.116676,0.26459 0.154109,0 0.280199,-0.11906 0.280199,-0.26459 z m 1.023175,-1.21255 c 0.05342,-0.27898 0.499907,-0.95407 0.992188,-1.50019 0.935953,-1.03832 1.155136,-1.78517 0.523907,-1.78517 -0.48695,0 -2.274687,2.70384 -2.274687,3.44032 0,0.69821 0.619448,0.57167 0.758592,-0.15496 z m 6.901678,-0.49378 c 0.641464,-0.6828 0.585523,-1.46867 -0.104548,-1.46867 -0.458327,0 -1.306142,1.47555 -1.068628,1.85986 0.246814,0.39935 0.514292,0.31016 1.173176,-0.39119 z m 25.412647,-0.2564 c 0,-0.0609 0.07227,-0.29898 0.1606,-0.52917 0.105386,-0.27463 0.01442,-0.41851 -0.264584,-0.41851 -0.248793,0 -0.425183,0.21953 -0.425183,0.52916 0,0.29105 0.119063,0.52917 0.264584,0.52917 0.145521,0 0.264583,-0.0498 0.264583,-0.11065 z M 33.55684,279.56382 c 0.05371,-0.3663 0.558869,-0.89289 1.318982,-1.37494 1.4648,-0.92895 2.003174,-1.81841 1.762877,-2.91248 -0.09515,-0.43322 -0.05687,-0.93163 0.08507,-1.10757 0.386596,-0.4792 0.622429,-2.38389 0.347414,-2.80584 -0.454996,-0.69809 -1.018382,-0.0671 -1.970165,2.20658 -0.685609,1.63783 -0.909439,2.49923 -0.796343,3.0647 0.147619,0.7381 0.106384,0.78654 -0.669514,0.78654 -0.454753,0 -0.839875,0.0893 -0.85583,0.19844 -0.145579,0.99596 -0.187343,2.11413 -0.08976,2.40326 0.178842,0.52989 0.768011,0.21829 0.867275,-0.45869 z m 33.382744,-0.42276 c 0,-0.1869 -0.625078,-0.99016 -1.389063,-1.78502 -0.763984,-0.79487 -1.573686,-1.71767 -1.799338,-2.05067 -0.353156,-0.52117 -0.491295,-0.5621 -0.992188,-0.29403 -0.32005,0.17128 -0.581911,0.46738 -0.581911,0.65799 0,0.38318 0.722159,1.09064 1.291987,1.26568 0.201268,0.0618 0.498925,0.51128 0.661458,0.9988 0.454308,1.3627 2.809055,2.3747 2.809055,1.20725 z m -5.280237,-5.23199 c -0.357515,-0.18092 -0.719738,-0.62565 -0.804939,-0.98829 -0.231714,-0.98624 -2.116908,-1.71346 -2.116908,-0.8166 0,0.11461 0.42245,0.64336 0.938779,1.17501 0.698363,0.71908 1.155729,0.96562 1.785938,0.96272 l 0.847158,-0.004 -0.650028,-0.32895 z m -30.21081,-1.86777 c 0.21523,-0.25934 0.205134,-0.47192 -0.03823,-0.80473 -0.308401,-0.42177 -0.370991,-0.41477 -0.927425,0.10363 -0.328187,0.30575 -0.527505,0.66788 -0.442931,0.80472 0.225745,0.36527 1.071046,0.30308 1.408581,-0.10362 z m 26.519346,-2.31869 c -0.216268,-0.9589 -1.002067,-2.09138 -1.451163,-2.09138 -0.138102,0 -0.464394,-0.19303 -0.725093,-0.42896 -0.559917,-0.50672 -1.349465,-0.30507 -1.1224,0.28666 0.08588,0.22379 0.302461,0.40689 0.481301,0.40689 0.273341,0 1.142159,0.88173 2.559045,2.59709 0.421153,0.50987 0.496417,0.28543 0.25831,-0.7703 z m 5.664409,-15.32054 c -0.08994,-0.14553 -0.275558,-0.26459 -0.412491,-0.26459 -0.136932,0 -0.248967,0.11906 -0.248967,0.26459 0,0.14552 0.185621,0.26458 0.412491,0.26458 0.226869,0 0.338904,-0.11906 0.248967,-0.26458 z m 7.077604,-1.63327 c 0.254662,-0.13059 0.463021,-0.41184 0.463021,-0.625 0,-0.56306 -3.127063,-0.55577 -3.34332,0.008 -0.08344,0.21744 -0.247555,0.33612 -0.364694,0.26372 -0.117141,-0.0724 -0.40536,-0.0578 -0.640487,0.0324 -0.326887,0.12544 -0.357357,0.24857 -0.129455,0.52318 0.324776,0.39133 3.133375,0.24995 4.014935,-0.20211 z m -42.532969,-0.84668 c 0.473559,-0.34628 0.450347,-0.4175 -0.495761,-1.52136 -0.711538,-0.83017 -1.192397,-1.15807 -1.698304,-1.15807 -0.561782,0 -0.73367,-0.1495 -0.842731,-0.73299 -0.201592,-1.07854 -1.184558,-1.47377 -3.376994,-1.35784 -1.012771,0.0536 -2.146193,0.25551 -2.518717,0.44877 -0.486995,0.25266 -1.183106,0.29905 -2.477336,0.16509 -0.990012,-0.10247 -2.078677,-0.0804 -2.419257,0.0491 -0.624083,0.23728 -1.944902,-0.23152 -2.308122,-0.81923 -0.246793,-0.39932 -0.927205,-0.32088 -0.927205,0.1069 0,0.20534 0.366824,0.68201 0.815164,1.05927 0.61897,0.52082 1.080649,0.67656 1.918229,0.64705 0.705324,-0.0248 2.2479,0.36646 4.278065,1.08522 1.823939,0.64575 3.625354,1.11714 4.233334,1.10776 1.075991,-0.0166 2.274342,0.27517 3.704167,0.90185 1.039717,0.4557 1.511868,0.45982 2.115468,0.0185 z m 45.041,-0.85491 c -0.08792,-0.0879 -0.316124,-0.0973 -0.507119,-0.0209 -0.211066,0.0845 -0.148373,0.14715 0.159853,0.15985 0.278913,0.0115 0.435184,-0.0511 0.347266,-0.13897 z m 1.394574,-0.36931 c 0,-0.14552 -0.171567,-0.26458 -0.38126,-0.26458 -0.209693,0 -0.454845,0.11906 -0.544782,0.26458 -0.08994,0.14552 0.08163,0.26458 0.381259,0.26458 0.29963,0 0.544783,-0.11906 0.544783,-0.26458 z M 8.8830667,249.93574 c -0.1786335,-0.28903 -1.4747333,-0.55584 -1.4747333,-0.30358 0,0.34489 0.3521361,0.53657 0.9857539,0.53657 0.3481366,0 0.5681774,-0.10484 0.4889794,-0.23299 z M 61.11875,249.60363 c 1.236928,-0.15173 2.436927,-0.44384 2.666667,-0.64913 0.22974,-0.2053 0.616694,-0.37327 0.859896,-0.37327 0.243202,0 0.442188,-0.17859 0.442188,-0.39687 0,-0.458 1.712515,-0.57217 1.984375,-0.13229 0.27741,0.44885 1.62806,0.29262 2.285793,-0.26441 0.612968,-0.51912 0.61504,-0.5364 0.111033,-0.92604 -0.654524,-0.50601 -1.315511,-0.50608 -1.735368,-1.8e-4 -0.513503,0.61873 -1.058333,0.47825 -1.058333,-0.27289 0,-0.95412 -0.754555,-1.15617 -1.389489,-0.37206 -0.455851,0.56295 -0.547658,0.58696 -0.82006,0.21442 -0.22579,-0.30878 -0.672129,-0.40082 -1.691246,-0.34876 -1.521632,0.0777 -3.003235,0.82892 -3.683913,1.86777 -0.227663,0.34746 -0.726143,0.78138 -1.107731,0.96427 -0.38159,0.18289 -0.736682,0.55521 -0.789096,0.82737 -0.0829,0.43047 0.01992,0.47163 0.790514,0.31639 0.487196,-0.0982 1.897843,-0.30259 3.13477,-0.45432 z m 14.816667,0.31613 c 0,-0.36869 -0.486394,-0.60244 -0.821997,-0.39503 -0.204134,0.12616 -0.184099,0.24988 0.06615,0.40844 0.472305,0.29927 0.755851,0.29424 0.755851,-0.0134 z m -24.0767,32.5105 c -0.800153,-0.44099 -1.574059,-0.93255 -1.719791,-1.09236 -0.175972,-0.19296 -0.176102,-0.24445 -2.65e-4,-0.15331 0.145521,0.0755 1.068255,0.50582 2.050521,0.95631 0.982266,0.45049 1.785937,0.88245 1.785937,0.95991 0,0.32096 -0.746299,0.0845 -2.116283,-0.67055 z m -9.684067,-2.95892 c 0.239263,-0.32743 0.55917,-0.91149 0.710903,-1.29793 0.435518,-1.10921 2.522355,-1.71671 2.820554,-0.8211 0.07697,0.23118 -0.1123,0.2844 -0.639532,0.17981 -0.660051,-0.13094 -0.869916,0.0105 -1.769512,1.19298 -0.976157,1.28307 -2.023584,1.97945 -1.122413,0.74624 z m -20.456169,-1.12448 c 0.02133,-1.9403 0.465243,-2.78986 0.483871,-0.92605 0.008,0.80037 -0.100871,1.63381 -0.241935,1.85209 -0.183548,0.28402 -0.252345,0.0207 -0.241936,-0.92604 z m 30.838215,0.47787 c -0.09306,-0.0931 -0.169196,-0.60821 -0.169196,-1.14479 0,-0.67393 -0.204536,-1.1963 -0.661458,-1.68933 -0.363802,-0.39255 -0.661458,-0.88992 -0.661458,-1.10527 0,-0.21535 -0.182737,-0.46167 -0.406085,-0.54738 -0.876679,-0.33641 -2.39168,-4.34096 -1.952633,-5.16133 0.30312,-0.56638 1.035801,-0.65542 1.035801,-0.12587 0,0.19866 0.264001,0.69682 0.586669,1.10702 0.322667,0.41021 0.806005,1.39553 1.074084,2.18961 0.612341,1.81381 1.228526,2.67319 1.924351,2.68386 1.239626,0.019 1.56962,1.27796 0.515938,1.96836 -0.403683,0.2645 -0.661459,0.68272 -0.661459,1.07315 0,0.65872 -0.32568,1.05084 -0.624554,0.75197 z M 22.002193,274.5104 c 0,-0.3638 0.06005,-0.51263 0.133452,-0.33073 0.0734,0.1819 0.0734,0.47956 0,0.66146 -0.0734,0.1819 -0.133452,0.0331 -0.133452,-0.33073 z m 0.20025,-1.78853 c -0.06362,-0.55241 0.08466,-3.04449 0.271412,-4.56147 0.254998,-2.07132 0.09858,-2.42952 -1.524438,-3.49097 -0.680878,-0.44529 -0.999834,-0.72041 -0.708792,-0.61139 0.291042,0.10902 1.033912,0.31212 1.650824,0.45132 1.86196,0.42016 2.650198,1.90624 1.79622,3.38646 -0.65824,1.14094 -0.861611,1.68631 -1.052006,2.82114 -0.150555,0.89737 -0.10554,1.11789 0.243045,1.19062 0.366542,0.0765 0.350364,0.15523 -0.112942,0.54971 -0.297421,0.25324 -0.550916,0.3723 -0.563323,0.26458 z m 43.785691,-2.11813 c -0.159493,-0.10691 -0.372668,-0.53195 -0.47372,-0.94454 -0.101053,-0.41258 -0.470993,-1.01638 -0.822087,-1.34176 -0.462817,-0.42892 -0.594059,-0.76101 -0.477261,-1.20764 0.112369,-0.42971 0.01053,-0.72613 -0.336711,-0.98004 -0.485807,-0.35523 -0.486019,-0.39718 -0.0088,-1.74092 0.562798,-1.58459 1.030536,-2.02957 2.143953,-2.0396 l 0.79375,-0.007 -0.992187,0.91129 c -1.266442,1.16318 -1.275779,1.83449 -0.06615,4.75665 1.126159,2.72051 1.172136,3.21909 0.239175,2.59371 z m -21.611542,-3.66328 c -0.407062,-0.40706 -0.187545,-1.16131 0.337992,-1.16131 0.291041,0 0.529166,0.0963 0.529166,0.21401 0,0.4013 -0.675372,1.13909 -0.867158,0.9473 z m -9.131906,-5.30897 c -0.261096,-0.10476 -0.269632,-0.22406 -0.03617,-0.50537 0.351094,-0.42304 0.774814,-0.25733 0.774814,0.30302 0,0.3945 -0.154361,0.43679 -0.738648,0.20235 z m -12.354109,-1.0454 c -0.220546,-0.22054 -0.400993,-0.57647 -0.400993,-0.79095 0,-0.30051 -0.207218,-0.3511 -0.903262,-0.22052 -0.746074,0.13997 -0.954888,0.073 -1.199933,-0.38488 -0.226621,-0.42345 -0.55115,-0.55434 -1.374386,-0.55434 -0.94662,0 -1.218706,-0.15287 -2.236827,-1.25677 -0.637514,-0.69123 -1.160385,-1.4015 -1.161937,-1.57839 -0.0016,-0.18322 -0.543758,-0.39337 -1.259942,-0.48838 -0.715184,-0.0949 -1.593639,-0.43509 -2.03774,-0.78921 -0.766269,-0.611 -0.771589,-0.63242 -0.289373,-1.16526 0.402569,-0.44484 0.81235,-0.54282 2.270052,-0.54282 1.537107,0 1.831116,0.0788 2.163797,0.57983 0.211747,0.3189 0.963098,0.77322 1.66967,1.00959 1.509839,0.50508 1.757102,0.92758 0.798472,1.36437 -0.390373,0.17786 -0.658395,0.49294 -0.614264,0.72209 0.120221,0.62426 1.774586,1.61578 2.695947,1.61578 0.547745,0 0.938496,0.18451 1.167567,0.55131 0.199858,0.32002 0.507606,0.48864 0.733573,0.40193 0.250322,-0.0961 0.478359,0.0849 0.63884,0.50702 0.300887,0.7914 0.432986,0.80296 1.453287,0.12724 0.436563,-0.28912 0.908561,-0.52646 1.048884,-0.52742 0.477979,-0.003 -0.596949,0.85216 -1.680339,1.3372 -0.965019,0.43205 -1.122823,0.44085 -1.481093,0.0826 z m 29.761507,-3.02464 c 0,-0.15411 0.119062,-0.20661 0.264583,-0.11668 0.145521,0.0899 0.264583,0.21603 0.264583,0.2802 0,0.0642 -0.119062,0.11668 -0.264583,0.11668 -0.145521,0 -0.264583,-0.12609 -0.264583,-0.2802 z M 30.294792,242.10648 c -0.145521,-0.0456 -1.127787,-0.23393 -2.182813,-0.41843 -1.055026,-0.1845 -1.918229,-0.44487 -1.918229,-0.57861 0,-0.13375 0.327422,-0.17825 0.727604,-0.0989 2.625892,0.52064 2.661891,0.51773 3.459216,-0.27959 l 0.76255,-0.76255 0.265136,0.99333 c 0.145823,0.54634 0.202997,1.05547 0.127051,1.13142 -0.145812,0.14581 -0.795811,0.15279 -1.240515,0.0133 z M 18.25625,241.1729 c 0.363802,-0.11651 1.19724,-0.21001 1.852083,-0.20778 l 1.190626,0.004 -1.058334,0.21891 c -0.582083,0.1204 -1.415521,0.21391 -1.852083,0.20779 -0.77493,-0.0109 -0.778066,-0.0161 -0.132292,-0.22297 z m 6.35,-0.26458 c 0,-0.33151 0.280787,-0.33151 0.79375,0 0.320929,0.20739 0.282956,0.25725 -0.198437,0.26053 -0.327422,0.002 -0.595313,-0.11501 -0.595313,-0.26053 z m 43.768373,-0.46562 c 0.106881,-0.33676 -0.07545,-0.56442 -0.658826,-0.82265 -0.443632,-0.19637 -0.741447,-0.42219 -0.661813,-0.50183 0.172525,-0.17252 2.26685,0.73623 2.26685,0.98361 0,0.24987 -0.596651,0.80649 -0.864497,0.80649 -0.126222,0 -0.162994,-0.20953 -0.08171,-0.46562 z m -11.555352,-1.14308 c -0.309324,-0.18016 -0.462692,-0.59467 -0.462031,-1.24872 l 0.0011,-0.97904 0.524288,0.85989 c 0.380323,0.62378 0.725152,0.86501 1.255781,0.8785 0.402323,0.0102 0.964047,0.10956 1.248275,0.22075 0.437611,0.1712 0.381876,0.22915 -0.363802,0.37828 -1.17756,0.23552 -1.651359,0.21194 -2.2035,-0.10966 z M 31.359422,236.4104 c 0.07845,-0.65484 0.436007,-2.08359 0.794568,-3.175 0.358558,-1.09141 0.588431,-1.56766 0.510826,-1.05833 -0.332113,2.17967 -0.609505,3.37216 -1.015514,4.36562 l -0.432522,1.05833 z m 1.614308,-6.01927 c 0.418888,-1.30356 0.715306,-1.91823 0.925036,-1.91823 0.38031,0 0.264467,1.02814 -0.19482,1.7291 -0.492988,0.75239 -0.949185,0.87055 -0.730216,0.18913 z m 13.923666,-1.41181 c -1.221465,-1.16813 -1.319294,-1.43931 -0.747863,-2.07309 0.297048,-0.32945 0.32717,-0.7531 0.142586,-2.00521 -0.399576,-2.71047 -0.558342,-3.26069 -1.076057,-3.72922 -0.275813,-0.24961 -0.501478,-0.66559 -0.501478,-0.92442 0,-0.31626 -0.237869,-0.49804 -0.725342,-0.5543 -0.920703,-0.10627 -1.07101,-0.80091 -0.332992,-1.53893 0.865918,-0.86592 1.440628,-0.59336 1.53651,0.72869 0.05684,0.7837 0.235963,1.20377 0.595312,1.39609 0.282705,0.1513 0.514012,0.50902 0.514012,0.79495 0,0.28592 0.238125,0.75798 0.529166,1.04902 0.383831,0.38383 0.537549,0.91067 0.559687,1.91823 0.01677,0.76398 0.05247,1.50812 0.0793,1.65364 0.307165,1.66611 0.538009,2.47584 0.845921,2.96726 0.456612,0.72873 0.474125,1.39929 0.03645,1.39552 -0.181901,-0.002 -0.836745,-0.48677 -1.455209,-1.07823 z"
         id="path4500"
         inkscape:connector-curvature="0" />
      <path
         style="display:inline;fill:#b2a606;stroke:#a48c00;stroke-width:1.89961994;stroke-linecap:round;stroke-linejoin:round;stroke-miterlimit:4;stroke-dasharray:none;stroke-opacity:1;paint-order:normal"
         d="m 19.181047,296.53696 c 0.508801,-1.25537 0.68397,-2.07327 1.203432,-5.61901 0.57894,-3.95174 0.817285,-4.82209 1.166004,-4.25785 0.146863,0.23763 0.284327,0.23517 0.580207,-0.0104 0.312946,-0.25972 0.496586,-0.21296 0.951945,0.2424 0.531619,0.53162 0.538425,0.59268 0.117865,1.05739 -0.592823,0.65506 -0.614005,2.02769 -0.02782,1.80275 0.230184,-0.0883 0.519743,-0.16059 0.643466,-0.16059 0.123722,0 0.637218,-0.80367 1.141101,-1.78594 0.503882,-0.98227 1.399601,-2.60833 1.990485,-3.61349 0.590884,-1.00515 1.15406,-2.19577 1.251501,-2.64583 0.192021,-0.88688 1.630399,-3.67997 3.433355,-6.66698 0.624102,-1.03397 1.264952,-2.34365 1.424112,-2.91041 0.159162,-0.56676 0.466047,-1.26159 0.681966,-1.54407 0.215921,-0.28247 0.392583,-0.72432 0.392583,-0.98189 0,-0.25756 0.535782,-1.1261 1.190625,-1.93007 0.654844,-0.80397 1.190625,-1.61395 1.190625,-1.79996 0,-0.34351 0.533609,-1.84711 1.552782,-4.37543 0.858827,-2.13053 0.771287,-2.58231 -0.67854,-3.50176 -0.683334,-0.43336 -1.37817,-0.78792 -1.544079,-0.78792 -0.16591,0 -0.82721,-0.40197 -1.469554,-0.89328 -0.642345,-0.4913 -1.525088,-0.96757 -1.96165,-1.05837 -2.60168,-0.54114 -5.131187,-0.95809 -5.814283,-0.95841 -0.924966,-4.2e-4 -4.372176,-1.2981 -4.372176,-1.64587 0,-0.28979 2.10752,-0.021 3.571875,0.45558 1.845313,0.60055 3.514236,0.74884 4.38208,0.38937 0.701651,-0.29064 0.78196,-0.42797 0.636788,-1.08893 -0.09904,-0.45094 -0.05582,-0.75634 0.107035,-0.75634 0.429604,0 1.6363,0.57686 3.076181,1.47056 0.727604,0.45161 1.858698,1.00856 2.513541,1.23767 0.654844,0.22912 1.715873,0.6125 2.357845,0.85197 0.641972,0.23947 1.592456,0.39959 2.112182,0.35583 0.843378,-0.071 1.030772,-0.23601 1.743197,-1.53478 l 0.798235,-1.45521 -0.04824,-4.43632 c -0.02975,-2.736 0.04775,-4.37699 0.202219,-4.28153 0.137752,0.0851 0.489304,0.62297 0.781222,1.19518 0.500927,0.9819 0.598823,1.04038 1.741548,1.04038 h 1.210784 l -0.167863,1.38906 c -0.501097,4.14663 -0.483999,4.88932 0.126614,5.49993 0.738862,0.73886 2.02106,0.60608 4.371967,-0.45276 1.427038,-0.64273 1.682787,-0.86518 1.82182,-1.58459 0.232053,-1.20073 2.950131,-3.7236 3.461158,-3.21257 0.05494,0.0549 -0.326419,0.71154 -0.847458,1.4591 -0.740039,1.06178 -0.908777,1.5129 -0.771091,2.06149 0.173953,0.69308 0.201213,0.70076 2.08429,0.58711 2.379858,-0.14363 7.533727,-1.05485 8.306784,-1.46866 0.317855,-0.17015 0.906349,-0.30936 1.307767,-0.30936 0.401418,0 1.86776,-0.36147 3.258539,-0.80327 6.820265,-2.16655 7.773496,-2.51984 7.879631,-2.92037 0.146351,-0.55229 1.788982,-1.28815 2.238779,-1.00292 0.191281,0.1213 0.899637,0.22236 1.574123,0.22459 1.009015,0.003 1.302065,0.11962 1.653646,0.6562 0.235019,0.35869 0.413859,0.74564 0.397423,0.8599 -0.05359,0.37262 -3.142515,3.07667 -3.316187,2.90299 -0.09291,-0.0929 -0.01593,-0.35327 0.171069,-0.57858 0.637759,-0.76845 0.075,-0.67924 -0.785419,0.12451 -0.471924,0.44084 -1.009467,0.80153 -1.19454,0.80153 -0.185074,0 -0.484717,0.1786 -0.665875,0.39688 -0.181157,0.21828 -0.556659,0.39687 -0.834451,0.39687 -0.277791,0 -0.573606,0.1786 -0.657367,0.39688 -0.16436,0.4283 -1.154015,0.55705 -1.154015,0.15012 0,-0.13572 0.228865,-0.31939 0.508585,-0.40817 0.823571,-0.26139 2.499931,-2.26323 2.17084,-2.59232 -0.349716,-0.34972 -2.834786,0.14471 -4.472752,0.88988 -0.622528,0.28322 -1.872684,0.58662 -2.778125,0.67423 -1.980198,0.1916 -4.695529,0.99364 -6.144173,1.81483 -0.610727,0.34621 -1.785694,0.6798 -2.778125,0.78876 -3.524539,0.38698 -5.671556,0.90311 -6.14417,1.47703 -0.250598,0.30431 -0.563557,0.48659 -0.695468,0.40507 -0.131911,-0.0815 -0.596874,0.0299 -1.033248,0.24757 -0.436375,0.2177 -1.637652,0.50182 -2.669503,0.63138 -2.475275,0.31081 -3.850691,0.98163 -3.960215,1.93148 -0.115573,1.00232 1.129112,3.01524 2.373784,3.83893 0.563967,0.37321 1.076023,0.92929 1.137904,1.23572 0.06188,0.30644 0.185544,1.01028 0.274804,1.5641 0.08926,0.55382 0.375896,1.22055 0.636968,1.48162 0.26107,0.26107 0.605801,0.85082 0.766067,1.31056 0.408784,1.17264 4.284054,5.80459 7.225443,8.63629 4.442404,4.27673 5.791801,5.88093 5.791801,6.88544 0,0.71259 0.235762,1.11161 1.179377,1.99603 0.648655,0.60797 1.56967,1.37284 2.046695,1.6997 0.78857,0.54034 0.896935,0.55541 1.193459,0.16594 0.281556,-0.36981 0.327784,-0.31986 0.338166,0.36539 0.0066,0.43656 0.07563,1.03187 0.153377,1.32292 0.07774,0.29104 -0.03026,0.76306 -0.239991,1.04893 -0.37583,0.51225 -0.401828,0.50964 -1.798608,-0.17995 -0.779497,-0.38484 -1.653813,-0.87587 -1.94292,-1.09118 -0.512958,-0.38201 -0.513781,-0.40459 -0.03406,-0.93468 0.490984,-0.54253 0.429924,-1.35667 -0.101748,-1.35667 -0.154655,0 -0.349724,0.1786 -0.433486,0.39688 -0.221906,0.57827 -1.350364,0.48958 -1.683181,-0.13229 -0.24901,-0.46528 -0.201213,-0.52917 0.395869,-0.52917 0.373489,0 0.743175,-0.16705 0.821524,-0.37122 0.240551,-0.62687 -0.908878,-2.50405 -2.030992,-3.31691 -1.22936,-0.89054 -1.808766,-1.58087 -2.567252,-3.05874 -0.298741,-0.58209 -2.182075,-2.66568 -4.185182,-4.63021 -2.573158,-2.52361 -3.859871,-3.99895 -4.384331,-5.02708 -0.408276,-0.80037 -1.162204,-1.99099 -1.6754,-2.64584 -0.513194,-0.65484 -1.25898,-1.71315 -1.657305,-2.3518 -1.189218,-1.90673 -1.851329,-2.58903 -3.308228,-3.4091 -2.298634,-1.29387 -2.40329,-1.29416 -3.910995,-0.0108 l -1.340969,1.14146 0.155607,1.45521 c 0.143285,1.33996 0.12355,1.41453 -0.249201,0.94162 -0.222646,-0.28247 -0.404812,-0.6099 -0.404812,-0.7276 0,-0.11771 -0.119063,-0.21402 -0.264583,-0.21402 -0.145521,0 -0.264584,0.13053 -0.264584,0.29007 0,0.15954 -0.645848,1.0257 -1.435213,1.9248 -0.789369,0.8991 -1.523527,1.98896 -1.631464,2.42191 -0.107934,0.43295 -0.41452,1.14437 -0.681302,1.58093 -0.266779,0.43656 -0.616019,1.12171 -0.776086,1.52255 -0.7077,1.77221 -5.705279,11.35037 -6.788111,13.00982 -0.657616,1.0078 -1.580451,2.67672 -2.050743,3.70871 -0.470291,1.03199 -1.168371,2.24867 -1.551287,2.70374 -0.819912,0.97441 -0.901936,1.67705 -0.195772,1.67705 0.336879,0 0.638839,-0.34589 0.923899,-1.05833 0.28074,-0.70164 0.58871,-1.05833 0.913763,-1.05833 0.525162,0 1.366066,0.77692 1.366066,1.26212 0,0.16193 -0.779462,0.92646 -1.732136,1.69896 -0.952674,0.7725 -2.497484,2.08915 -3.432909,2.9259 -1.409363,1.26068 -1.865436,1.52135 -2.661797,1.52135 -0.810361,0 -0.931603,-0.0726 -0.773361,-0.46302 z m 3.57312,-5.78299 c 0,-0.21675 -0.272463,-0.36857 -0.661458,-0.36857 -0.712514,0 -0.837649,0.24714 -0.364635,0.72016 0.369089,0.36909 1.026093,0.14396 1.026093,-0.35159 z m 6.53783,-3.17935 c -0.250798,-0.2508 0.317431,-0.89339 0.790009,-0.89339 0.509061,0 0.329465,0.89632 -0.20003,0.9983 -0.223705,0.0431 -0.489196,-0.004 -0.589979,-0.10491 z m 8.278837,-3.14235 c 0,-0.22812 0.238783,-0.39687 0.561562,-0.39687 0.46917,0 0.507373,0.0653 0.232188,0.39687 -0.181158,0.21828 -0.433861,0.39688 -0.561563,0.39688 -0.127703,0 -0.232187,-0.1786 -0.232187,-0.39688 z m -13.49375,-0.13028 c 0,-0.48126 0.522549,-1.32493 0.820633,-1.32493 0.47579,0 0.140118,1.44411 -0.357613,1.5385 -0.254661,0.0483 -0.46302,-0.0478 -0.46302,-0.21357 z m 7.9375,-0.88704 c 0,-0.34272 0.566869,-0.94681 1.25677,-1.3393 0.237877,-0.13532 0.33073,0.0762 0.33073,0.75351 0,0.86989 -0.06049,0.94165 -0.79375,0.94165 -0.488516,0 -0.79375,-0.13684 -0.79375,-0.35586 z m 29.633333,-0.96705 c 0,-0.29104 0.119063,-0.52917 0.264583,-0.52917 0.145521,0 0.264584,0.23813 0.264584,0.52917 0,0.29104 -0.119063,0.52916 -0.264584,0.52916 -0.14552,0 -0.264583,-0.23812 -0.264583,-0.52916 z m -36.239502,-0.30868 c 0.0046,-0.19403 0.191759,-0.59091 0.415846,-0.88195 0.392482,-0.50975 0.404308,-0.50079 0.322314,0.24418 -0.08317,0.75563 -0.754813,1.33593 -0.73816,0.63777 z m 41.812765,-0.73354 c -0.314812,-0.19921 -0.32059,-0.31178 -0.03375,-0.65741 0.525672,-0.63339 1.075069,-0.50849 1.075069,0.24442 0,0.68227 -0.378519,0.83239 -1.041321,0.41299 z m -31.068651,-1.52261 c -0.316219,-0.31622 -0.170844,-0.87476 0.22768,-0.87476 0.218281,0 0.396875,0.17157 0.396875,0.38126 0,0.44203 -0.377635,0.74042 -0.624555,0.4935 z m 23.290528,-9.25323 c -0.322244,-0.32224 -0.182319,-0.88194 0.220485,-0.88194 0.220485,0 0.396875,0.23518 0.396875,0.52917 0,0.52711 -0.281924,0.68821 -0.61736,0.35277 z m -21.60764,-0.32155 c 0,-0.14552 0.119062,-0.33816 0.264583,-0.4281 0.145521,-0.0899 0.264584,-0.0445 0.264584,0.10106 0,0.14552 -0.119063,0.33817 -0.264584,0.42811 -0.145521,0.0899 -0.264583,0.0444 -0.264583,-0.10107 z m 0.550055,-1.2439 c 0.0127,-0.30822 0.07539,-0.37092 0.159851,-0.15985 0.07643,0.19099 0.06703,0.4192 -0.02088,0.50712 -0.08792,0.0879 -0.150453,-0.0684 -0.138965,-0.34727 z m -7.462826,-0.83785 c 0.56606,-1.05008 1.917401,-1.99098 2.524757,-1.75791 0.333862,0.12811 0.186571,0.37522 -0.703728,1.18063 -1.197965,1.08374 -2.27873,1.42635 -1.821029,0.57728 z m 16.966938,-2.78757 c 0,-0.7307 0.352449,-0.95356 0.67715,-0.42818 0.09857,0.15948 -0.01347,0.48265 -0.24897,0.71815 -0.394517,0.39452 -0.42818,0.37173 -0.42818,-0.28997 z m 4.916871,-0.35915 c -0.09175,-0.23911 -0.104315,-0.49726 -0.02791,-0.57366 0.183525,-0.18353 1.461037,0.50595 1.461037,0.78853 0,0.41156 -1.265558,0.22181 -1.433129,-0.21487 z m -21.45333,-8.03192 c 0.08994,-0.14552 0.33509,-0.26458 0.544783,-0.26458 0.209693,0 0.381259,0.11906 0.381259,0.26458 0,0.14552 -0.245152,0.26458 -0.544782,0.26458 -0.299631,0 -0.471197,-0.11906 -0.38126,-0.26458 z m 33.270437,-0.56977 c -0.506402,-0.50641 -0.392198,-1.01773 0.227306,-1.01773 0.306416,0 0.910862,-0.29766 1.343218,-0.66146 0.432353,-0.3638 1.000204,-0.66146 1.261893,-0.66146 0.261686,0 0.877628,-0.0796 1.368761,-0.17691 0.803987,-0.15929 0.857562,-0.13386 0.537647,0.25518 -0.517689,0.62954 -3.017375,2.24291 -3.766307,2.43088 -0.369136,0.0926 -0.783093,0.0209 -0.972518,-0.1685 z m -8.767345,-0.32117 c -0.508598,-0.61282 0.267645,-1.04145 0.981086,-0.54173 0.317505,0.22239 0.577281,0.51665 0.577281,0.65392 0,0.38363 -1.219751,0.29582 -1.558367,-0.11219 z m -38.856738,-0.60721 c -0.509552,-0.20561 -0.391526,-0.61852 0.176798,-0.61852 0.748527,0 1.362495,0.28609 1.19513,0.55689 -0.155783,0.25207 -0.825436,0.28215 -1.371928,0.0616 z m -7.9532766,-3.46279 c 0.049043,-0.25466 0.2645024,-0.46302 0.4787977,-0.46302 0.2142953,0 0.4297545,0.20836 0.4787979,0.46302 0.06256,0.32487 -0.080296,0.46302 -0.4787979,0.46302 -0.398502,0 -0.5413616,-0.13815 -0.4787977,-0.46302 z m 10.7507646,0.0108 c -0.765576,-0.11713 -1.628101,-0.87069 -0.996586,-0.87069 0.565481,0 2.101702,0.61903 2.101702,0.8469 0,0.11628 -0.0893,0.19359 -0.198437,0.17179 -0.109141,-0.0218 -0.517146,-0.0884 -0.906679,-0.148 z M 3.2826368,250.65953 C 1.7587114,249.4915 1.4356524,249.34252 1.0071013,249.61016 0.43884274,249.96504 0,249.79352 0,249.21653 c 0,-0.60925 0.93816033,-2.29102 1.6468671,-2.9522 0.5237923,-0.48867 5.9214815,-2.69544 6.6210592,-2.70693 0.3186999,-0.005 2.3154067,2.02244 2.3154067,2.35132 0,0.1649 -0.414114,0.4973 -0.920254,0.73866 -0.8583391,0.40932 -0.9531983,0.40903 -1.4098961,-0.004 -0.7860623,-0.71138 -1.4242698,-0.5744 -1.3254445,0.28448 0.072912,0.63368 0.2243574,0.74638 1.173145,0.87303 0.619695,0.0827 1.4440501,0.44382 1.9118916,0.83748 0.452356,0.38063 1.182505,0.77113 1.622554,0.86779 0.440048,0.0967 0.800088,0.2958 0.800088,0.44255 0,0.37845 -2.144739,-0.01 -2.6845749,-0.48617 -0.5223386,-0.46077 -4.501881,-1.28737 -5.0975099,-1.0588 -0.6866031,0.26347 -0.5288765,1.23611 0.2004523,1.23611 0.3412482,0 0.8289187,0.23035 1.0837119,0.51189 0.4416766,0.48805 0.4405053,0.54313 -0.025138,1.18231 -0.2686198,0.36873 -0.5705798,0.67416 -0.6710225,0.67873 -0.1004427,0.005 -0.9818571,-0.60426 -1.9586985,-1.35297 z m 4.5887174,-5.84861 c -0.060634,-0.1819 -0.2689931,-0.33073 -0.4630208,-0.33073 -0.1940277,0 -0.4023871,0.14883 -0.4630208,0.33073 -0.065581,0.19674 0.1220022,0.33073 0.4630208,0.33073 0.3410185,0 0.5286012,-0.13399 0.4630208,-0.33073 z m 7.4744788,6.01524 c -0.654843,-0.19448 -1.547812,-0.48102 -1.984375,-0.63675 l -0.79375,-0.28314 0.79375,0.13249 c 0.436563,0.0729 1.448594,0.20892 2.248959,0.30231 0.800364,0.0934 1.69006,0.33096 1.9771,0.52791 0.491079,0.33694 0.475457,0.35669 -0.264583,0.33443 -0.432561,-0.013 -1.322257,-0.18278 -1.977101,-0.37725 z m -2.264534,-4.20954 c -0.494295,-0.36294 -0.48454,-0.38819 0.259641,-0.67225 0.961025,-0.36683 1.475727,-0.18829 1.475727,0.51189 0,0.64835 -0.951079,0.73624 -1.735368,0.16036 z m 4.708006,0.18987 c -1.016184,-0.19531 -0.365344,-0.60698 0.945581,-0.59809 1.148834,0.008 1.202953,0.0373 0.727565,0.39687 -0.521543,0.39448 -0.611438,0.40529 -1.673146,0.20122 z m 53.517597,-0.97851 c -1.585185,-0.30404 -1.585494,-0.30428 -0.79375,-0.62516 1.418818,-0.57502 2.980172,-0.52759 3.220165,0.0978 0.141631,0.36909 -0.332894,0.94614 -0.708316,0.86137 -0.07276,-0.0164 -0.845905,-0.16674 -1.718099,-0.33403 z m -49.214193,-0.95091 c -0.08994,-0.14553 0.08866,-0.26459 0.396875,-0.26459 0.308218,0 0.486811,0.11906 0.396875,0.26459 -0.08994,0.14552 -0.268531,0.26458 -0.396875,0.26458 -0.128345,0 -0.306939,-0.11906 -0.396875,-0.26458 z m 16.53115,-2.51994 c -0.184075,-0.2218 -0.267832,-0.47012 -0.186123,-0.55183 0.08171,-0.0817 0.281455,0.0998 0.443886,0.40327 0.346564,0.64756 0.217911,0.72171 -0.257763,0.14856 z m 4.690433,-0.48128 c -0.447728,-1.6064 -1.217797,-9.27084 -1.047572,-10.42639 0.229581,-1.55846 0.59578,-0.89595 0.59578,1.07786 0,1.06576 0.184722,3.01311 0.410491,4.32744 0.424645,2.47208 0.457906,6.51582 0.0413,5.02109 z m -5.80967,-7.27757 c -0.08003,-0.30603 -0.04118,-1.00577 0.08633,-1.55497 0.127513,-0.54919 0.23468,-1.46883 0.238151,-2.04364 0.0097,-1.61173 0.465616,-0.78993 0.653148,1.1774 0.137737,1.44496 0.08435,1.82029 -0.334092,2.34872 -0.493403,0.62309 -0.499377,0.62376 -0.643538,0.0725 z m 0.599429,-14.65819 c -0.0022,-0.40019 0.115012,-0.72761 0.260533,-0.72761 0.334541,0 0.334541,0.54067 0,1.05834 -0.199861,0.30926 -0.257374,0.23625 -0.260533,-0.33073 z m 2.277594,-0.34096 c -0.255317,-0.66535 -0.179998,-0.83702 0.131903,-0.30066 0.154435,0.26558 0.225055,0.5386 0.156932,0.60673 -0.06812,0.0681 -0.198099,-0.0696 -0.288835,-0.30607 z m -0.671502,-2.19642 c -0.219741,-0.41059 -0.55481,-0.57148 -1.19018,-0.57148 -0.486384,0 -1.010018,-0.15143 -1.16363,-0.33653 -0.379992,-0.45786 -0.963657,-3.73208 -0.759925,-4.26299 0.34323,-0.89445 3.398861,-0.10797 4.558355,1.17326 0.36971,0.40853 0.348247,0.43547 -0.255005,0.32016 -0.5421,-0.10363 -0.690415,4.5e-4 -0.837885,0.58802 -0.09855,0.39267 -0.03933,1.18073 0.131598,1.75124 0.384897,1.28468 0.02352,2.28535 -0.483328,1.33832 z"
         id="path4498"
         inkscape:connector-curvature="0" />
    </g>
    <g
       style="stroke:none;stroke-width:0;stroke-linecap:round;stroke-linejoin:round;stroke-miterlimit:4;stroke-dasharray:none;stroke-opacity:1;paint-order:normal"
       transform="matrix(0.98432396,0,0,0.97173697,0.93502634,7.4551124)"
       id="g4512">
      <path
         inkscape:connector-curvature="0"
         id="path4506"
         d="m 19.05,296.77681 c 0,-0.12275 0.353914,-2.54118 0.786475,-5.3743 0.796289,-5.2154 1.127122,-8.67856 1.593838,-16.68431 0.141799,-2.43232 0.38914,-5.26881 0.549649,-6.30331 0.3541,-2.28223 0.20708,-2.51108 -2.484919,-3.86794 -1.852652,-0.93379 -9.8266078,-7.39517 -12.9799866,-10.51781 -0.8950235,-0.8863 -2.389178,-2.22969 -3.3203431,-2.98532 C 1.7891498,249.90323 1.3741985,249.69546 0.75084308,249.82013 0.08610366,249.95307 0,249.89435 0,249.30807 c 0,-0.83443 0.57832898,-2.2339 1.3047326,-3.15726 0.6543252,-0.83173 3.0450254,-1.80584 8.2454082,-3.35965 8.1939002,-2.44825 12.9051922,-3.08097 17.0404842,-2.28854 3.649298,0.6993 3.707048,0.65923 4.08727,-2.83539 0.195276,-1.79479 0.677948,-3.7893 1.586439,-6.55554 0.740797,-2.25563 1.479913,-5.14624 1.708248,-6.68078 0.221364,-1.48769 0.833689,-4.00628 1.360726,-5.59688 0.721095,-2.17627 0.969214,-3.38765 1.002572,-4.89479 l 0.04433,-2.0028 0.79375,-0.0913 c 1.935665,-0.22262 3.389156,0.45549 6.652331,3.10359 4.01165,3.25549 4.542753,3.79769 7.157461,7.30696 3.535307,4.74484 5.637083,9.38628 5.637083,12.4486 0,1.29889 0.694153,3.46335 1.16917,3.64563 0.187211,0.0718 1.779894,0.0387 3.539294,-0.0736 1.759402,-0.11231 3.82529,-0.10518 4.590865,0.0159 1.652175,0.26117 6.460461,2.13915 8.212492,3.20757 0.681969,0.41588 2.184588,1.10089 3.339153,1.52226 1.154562,0.42136 2.547969,1.07065 3.096456,1.44286 0.561861,0.38129 1.371282,0.67675 1.853969,0.67675 0.942264,0 1.326661,0.32498 1.566567,1.3244 0.131802,0.54907 -0.202851,1.08237 -1.991435,3.17352 -5.000476,5.84638 -8.982265,9.44077 -14.498465,13.08786 -2.668823,1.76453 -2.670718,1.79898 -0.402707,7.32686 2.397837,5.8443 3.258937,8.76229 3.696412,12.5259 0.484431,4.16759 0.476912,5.69747 -0.03157,6.42342 -0.423714,0.60494 -1.142301,0.76592 -1.585727,0.35525 -0.265877,-0.24623 -4.711832,-1.88334 -12.164999,-4.47945 -5.615551,-1.95602 -6.898736,-2.60413 -8.968875,-4.52998 -1.985762,-1.84735 -2.942654,-2.50196 -3.400462,-2.32629 -0.188254,0.0722 -1.2905,1.37617 -2.449439,2.89762 -2.959179,3.8848 -6.749251,6.89651 -12.124439,9.63448 -0.998355,0.50854 -2.577536,1.57133 -3.50929,2.36176 -0.931755,0.79043 -1.81422,1.43715 -1.961033,1.43715 -0.146813,0 -0.770288,0.45935 -1.3855,1.02077 -0.615212,0.56143 -1.378631,1.15674 -1.696486,1.32292 -0.670187,0.35038 -2.46479,0.40787 -2.46479,0.079 z"
         style="fill:#e7e254;stroke:none;stroke-width:0;stroke-linecap:round;stroke-linejoin:round;stroke-miterlimit:4;stroke-dasharray:none;stroke-opacity:1;paint-order:normal" />
      <path
         inkscape:connector-curvature="0"
         id="path4508"
         d="m 19.173721,296.53696 c 0.388364,-0.99715 2.257529,-12.66331 2.257529,-14.09009 0,-0.4845 0.0893,-0.79151 0.198438,-0.68223 0.10914,0.10928 0.198437,0.69265 0.198437,1.29639 0,0.83474 0.110918,1.11926 0.463021,1.18773 0.278332,0.0541 0.463021,-0.0713 0.463021,-0.3145 0,-0.22249 0.271231,-0.80421 0.602737,-1.29271 0.331505,-0.4885 0.769651,-1.39394 0.973658,-2.01209 0.332218,-1.00663 0.323419,-1.20432 -0.08433,-1.89458 -0.424352,-0.71837 -0.42561,-0.81592 -0.01853,-1.4372 0.240198,-0.36659 0.362048,-0.86113 0.270777,-1.09898 -0.223628,-0.58277 0.298768,-1.15914 1.050589,-1.15914 1.005481,0 0.972929,-0.43933 -0.07852,-1.05969 l -0.986988,-0.58234 0.619819,-0.5019 c 0.3409,-0.27604 0.800898,-0.5019 1.022219,-0.5019 0.316983,0 0.372156,-0.22548 0.259927,-1.06222 -0.120731,-0.90012 -0.05539,-1.10732 0.428184,-1.35776 1.458479,-0.75533 3.084198,-1.93446 3.084198,-2.23696 0,-0.18396 0.267891,-0.41572 0.595312,-0.51501 0.327422,-0.0993 0.833438,-0.39079 1.12448,-0.64776 0.291041,-0.25697 1.094404,-0.54819 1.785249,-0.64715 1.353093,-0.19384 1.60755,-0.46653 1.888096,-2.02338 0.115782,-0.64254 0.38953,-1.06651 0.846518,-1.31109 0.376333,-0.20141 0.966418,-0.97662 1.332627,-1.75073 0.622446,-1.31574 0.634246,-1.42435 0.222973,-2.05204 -0.238845,-0.36452 -0.631968,-0.72109 -0.873612,-0.79239 -0.880171,-0.25968 -4.180068,-0.21647 -5.598726,0.0733 -0.800365,0.16348 -2.043851,0.4177 -2.763301,0.56493 -1.362689,0.27887 -1.923142,0.0791 -1.665041,-0.59351 0.07691,-0.20043 0.896395,-0.57926 1.821071,-0.84184 0.924677,-0.26258 1.830057,-0.51958 2.011958,-0.5711 0.707374,-0.20038 0.262771,-0.54257 -1.322917,-1.01817 -0.909505,-0.2728 -2.248958,-0.54668 -2.976562,-0.60862 -0.727604,-0.0619 -2.037292,-0.38755 -2.910417,-0.72357 -0.873125,-0.33602 -2.220317,-0.75636 -2.99376,-0.93409 -0.773443,-0.17773 -1.754855,-0.49705 -2.180915,-0.7096 -0.42606,-0.21254 -0.996824,-0.31593 -1.268364,-0.22975 -0.286001,0.0908 -0.634368,-0.0128 -0.828045,-0.24615 -0.183884,-0.22157 -0.602443,-0.40285 -0.930131,-0.40285 -0.327688,0 -1.116781,-0.18392 -1.75354,-0.40872 -0.63676,-0.2248 -1.434354,-0.3394 -1.772432,-0.25468 -0.545798,0.13678 -0.606378,0.28917 -0.540543,1.35974 0.08953,1.45585 -0.526968,2.04039 -1.3583727,1.28798 -0.3185115,-0.28825 -0.6907043,-0.38119 -1.0587419,-0.26438 -0.3936941,0.12496 -0.6806057,0.0309 -0.9365879,-0.30688 -0.4849069,-0.63994 -0.4843791,-0.34053 0.00106,0.59514 0.5895049,1.13627 0.2488314,1.11371 -0.9877676,-0.0654 -0.6154127,-0.58682 -1.8757707,-1.65095 -2.8007954,-2.36475 -2.7591763,-2.12913 -2.6381481,-2.06193 -3.06913053,-1.70424 -0.58575062,0.48613 -1.01328287,0.0575 -0.83446114,-0.83662 0.27481227,-1.37411 1.50448207,-2.76957 3.07190387,-3.48609 2.4809908,-1.13415 12.2701973,-3.87249 13.8282763,-3.8682 0.546523,0.002 0.535549,0.0308 -0.144273,0.38543 -0.404683,0.21109 -0.902023,0.32001 -1.1052,0.24205 -0.203176,-0.078 -0.929003,0.10578 -1.612948,0.40832 -0.683946,0.30254 -1.39997,0.55007 -1.591165,0.55007 -0.557569,0 -0.739234,0.54677 -0.320718,0.96528 0.313408,0.31341 0.515029,0.32625 1.080146,0.0688 0.630854,-0.28743 0.766344,-0.24 1.471917,0.51532 0.852383,0.91248 1.711674,1.05805 2.594693,0.43956 0.34901,-0.24446 1.064733,-0.37193 1.898871,-0.33819 1.026087,0.0415 1.524427,-0.0831 2.133854,-0.5337 0.437316,-0.32333 0.984448,-0.58786 1.215848,-0.58786 0.694382,0 2.053992,0.80587 3.07396,1.82201 2.44382,2.43464 4.395969,4.10785 5.169991,4.43125 0.465061,0.19432 0.920264,0.47417 1.011563,0.6219 0.0913,0.14772 0.332994,0.26859 0.537102,0.26859 0.204107,0 0.923041,0.53642 1.597631,1.19204 0.674587,0.65563 1.542362,1.25959 1.928384,1.34215 0.386024,0.0825 1.636334,0.57516 2.778471,1.09468 l 2.076612,0.94458 0.6282,-0.76537 c 0.363014,-0.44228 0.623102,-1.10044 0.616122,-1.55912 -0.0066,-0.43657 0.07405,-2.07367 0.179321,-3.63802 0.13325,-1.9801 0.104495,-2.84427 -0.09464,-2.84427 -0.157324,0 -0.324094,0.26789 -0.370594,0.59531 -0.05883,0.41421 -0.291412,0.61938 -0.764535,0.67444 -0.564123,0.0656 -0.818128,-0.1431 -1.490723,-1.22508 -0.558332,-0.89817 -0.769673,-1.519 -0.678844,-1.99414 0.09734,-0.50921 -0.07801,-0.929 -0.669391,-1.60255 -0.532442,-0.60642 -0.908169,-1.42861 -1.119873,-2.45061 -0.175225,-0.8459 -0.497517,-2.03942 -0.7162,-2.65226 -0.459208,-1.28688 -0.272682,-4.56418 0.325379,-5.71695 0.195786,-0.37738 0.292119,-0.93033 0.214072,-1.22878 -0.07804,-0.29845 0.0057,-0.89911 0.186219,-1.33479 0.398708,-0.96257 0.05862,-1.51209 -1.01241,-1.63587 -0.830527,-0.096 -0.967801,-0.82671 -0.179075,-0.95324 0.291042,-0.0467 0.900575,-0.27539 1.354518,-0.50821 1.384602,-0.71015 1.745973,-0.35407 1.534811,1.51234 -0.137329,1.21384 -0.07091,1.88081 0.278387,2.79543 0.645948,1.69139 0.536906,4.94542 -0.196824,5.87367 -0.405267,0.51271 0.01593,3.74526 0.614104,4.71314 0.283826,0.45924 0.516046,1.02411 0.516046,1.25527 0,0.23117 0.474765,0.93149 1.055034,1.55627 l 1.055036,1.13598 0.0033,-0.972 c 0.0019,-0.5346 -0.132705,-1.56121 -0.298935,-2.28135 -0.220831,-0.9567 -0.224268,-1.533 -0.01275,-2.13974 0.223634,-0.64152 0.202481,-1.07697 -0.093,-1.91446 -0.32235,-0.9136 -0.620096,-5.72909 -0.717884,-11.61016 -0.01521,-0.91483 -0.458943,-4.52876 -0.625366,-5.09323 -0.07508,-0.25466 -0.292505,-0.46302 -0.483161,-0.46302 -0.562311,0 -0.999868,0.72042 -1.331272,2.19189 -0.242753,1.07786 -0.422273,1.37999 -0.819965,1.37999 -0.444778,0 -0.510564,-0.20104 -0.520224,-1.58978 -0.0061,-0.87438 -0.09689,-1.72866 -0.201798,-1.8984 -0.301363,-0.48762 0.376074,-1.6736 1.19906,-2.09918 0.913358,-0.47232 0.807143,-0.69864 -0.535903,-1.14188 l -1.031433,-0.34041 0.02598,-2.68288 0.02599,-2.68289 0.851419,-0.0823 c 1.301739,-0.12579 2.997152,0.77306 5.480727,2.90568 2.101749,1.80476 2.684378,2.70392 1.064178,1.64232 -0.686366,-0.44972 -0.718251,-0.44583 -1.161579,0.1419 -0.430938,0.57131 -0.480677,0.57949 -0.910495,0.14967 -0.25006,-0.25006 -0.48441,-0.41072 -0.520777,-0.35702 -0.664162,0.98083 -0.678307,1.63745 -0.06368,2.95637 0.816139,1.75134 1.097952,2.8905 1.485501,6.00482 0.172032,1.38245 0.486211,2.93026 0.698179,3.43958 0.244936,0.58854 0.369684,1.69747 0.342287,3.04271 -0.04308,2.11533 0.170915,4.4108 0.48098,5.15938 0.09041,0.21828 0.18087,1.05171 0.201018,1.85208 0.06282,2.49569 0.398467,4.10722 1.017016,4.88295 0.500427,0.62759 0.678362,0.69949 1.131271,0.4571 0.295595,-0.1582 0.865309,-0.71748 1.266031,-1.24286 0.654497,-0.85808 0.688345,-1.00062 0.332859,-1.40173 -0.494369,-0.5578 -0.248566,-2.4843 0.453194,-3.55199 0.367792,-0.55957 0.484645,-1.31152 0.513945,-3.30729 0.02085,-1.42068 -0.0543,-2.91309 -0.167013,-3.31647 -0.254431,-0.91054 0.412922,-1.28902 1.085348,-0.61554 0.67565,0.6767 0.491125,5.77851 -0.30888,8.53996 -0.373928,1.29072 -0.529506,2.31831 -0.413462,2.73087 0.355079,1.26235 0.251844,2.28744 -0.27872,2.76759 -0.306057,0.27698 -0.58044,0.96943 -0.671499,1.69465 -0.08469,0.67446 -0.338879,1.9616 -0.564872,2.8603 -0.541489,2.15332 -0.352129,2.73163 0.894439,2.73163 1.206223,0 3.164613,-0.93094 3.378933,-1.6062 0.166413,-0.52432 2.796712,-3.42089 3.106423,-3.42089 0.269465,0 1.85783,-1.12918 2.512203,-1.78594 0.326231,-0.32742 0.75329,-0.59531 0.949015,-0.59531 0.195729,0 0.577472,-0.24487 0.848321,-0.54415 0.338341,-0.37386 0.683548,-0.49619 1.103085,-0.3909 0.38332,0.0962 1.175567,-0.11628 2.128242,-0.57082 0.834686,-0.39825 1.7335,-0.68984 1.997363,-0.64798 0.263864,0.0419 0.747017,-0.099 1.073669,-0.31303 0.407717,-0.26715 0.733655,-0.31095 1.039638,-0.13971 0.245149,0.13719 0.595434,0.22991 0.778414,0.20604 0.721106,-0.0941 0.942624,0.0499 1.261531,0.81981 0.266102,0.64242 0.442249,0.76665 0.891995,0.62907 0.308229,-0.0943 0.694955,-0.27863 0.859391,-0.40967 0.39099,-0.31157 3.20467,0.0108 4.119658,0.47204 1.154178,0.58178 1.464704,0.41373 0.608451,-0.32928 -0.999969,-0.86772 -1.932202,-1.23313 -2.672175,-1.04741 -0.427834,0.10738 -0.863529,-0.13426 -1.692365,-0.93862 l -1.1162,-1.08324 0.888288,0.18669 c 0.488556,0.10268 1.364536,0.46929 1.946619,0.8147 1.615379,0.95857 3.649451,1.89268 5.207823,2.3916 0.773718,0.24772 1.761109,0.69674 2.1942,0.99783 0.433091,0.3011 1.304494,0.60946 1.936448,0.68526 0.857944,0.1029 1.249665,0.30537 1.546355,0.79927 0.389416,0.64826 0.348758,0.71296 -2.03671,3.24115 -1.393404,1.47677 -2.645711,2.57969 -2.929106,2.57969 -0.301633,0 -0.495052,0.1874 -0.495052,0.47966 0,0.26382 -0.366278,0.82936 -0.813953,1.25677 l -0.813951,0.77711 0.181176,-0.72761 c 0.163727,-0.65752 0.113032,-0.7276 -0.526357,-0.7276 -0.89322,0 -1.731081,0.43902 -1.731081,0.90704 0,0.48876 -0.597088,0.68046 -2.119408,0.68046 -0.73669,0 -1.437532,0.15515 -1.646994,0.36462 -0.200539,0.20053 -0.744826,0.44812 -1.209525,0.55018 -0.971624,0.21341 -1.070811,0.52714 -0.31574,0.99868 0.291042,0.18176 0.529167,0.51921 0.529167,0.74988 0,0.45258 1.057986,1.56997 1.486503,1.56997 0.143975,0 0.665676,-0.41672 1.15933,-0.92604 0.493654,-0.50932 1.071245,-0.92604 1.283533,-0.92604 0.57584,0 -0.273322,0.86115 -2.474158,2.50909 -2.690752,2.01477 -3.571875,2.40748 -3.571875,1.59195 0,-0.21828 0.178594,-0.39687 0.396875,-0.39687 0.699169,0 0.439878,-1.02251 -0.364813,-1.43863 -0.418928,-0.21664 -0.829445,-0.57046 -0.912262,-0.78628 -0.08281,-0.21581 -0.825079,-0.71148 -1.649473,-1.10148 -1.217113,-0.57579 -1.540905,-0.64113 -1.722337,-0.34756 -0.136115,0.22024 -0.07272,0.59156 0.162202,0.9501 0.212101,0.32371 0.385641,0.65534 0.385641,0.73696 0,0.28541 -1.460823,-0.61468 -2.089036,-1.28717 l -0.633828,-0.6785 0.699974,-0.26613 c 0.536167,-0.20385 0.699973,-0.44679 0.699973,-1.03812 0,-0.4246 -0.148828,-0.82326 -0.330729,-0.88591 -0.353253,-0.12166 -2.976811,-0.0425 -3.638021,0.1098 -0.408056,0.094 -0.685911,0.60732 -0.330729,0.61103 0.487172,0.005 2.229239,1.00168 2.363767,1.35225 0.195455,0.50935 0.04389,0.63507 -1.067972,0.88583 -1.000898,0.22574 -2.748751,-0.0751 -3.973471,-0.68393 -0.553241,-0.27503 -0.8534,-0.29956 -1.105474,-0.0904 -0.252433,0.2095 -0.548904,0.18226 -1.096121,-0.10072 -0.412552,-0.21333 -1.309116,-0.47171 -1.992363,-0.57417 -1.025911,-0.15385 -1.405466,-0.0854 -2.179325,0.39284 -1.085093,0.67063 -1.129657,1.0272 -0.330843,2.64719 0.432877,0.87787 0.875969,1.32372 1.708886,1.71951 0.618463,0.29388 1.12876,0.71305 1.133993,0.93149 0.01752,0.73128 1.163773,1.76069 3.269081,2.93585 1.148384,0.64102 2.65416,1.6715 3.346167,2.28996 0.692009,0.61846 1.44042,1.12448 1.663139,1.12448 0.524605,0 1.501682,1.2444 1.501682,1.91253 0,0.29574 0.227201,0.57767 0.529167,0.65664 0.339645,0.0888 0.529166,0.3609 0.529166,0.75967 0,0.34946 0.230368,0.74458 0.526535,0.90308 0.289591,0.15499 0.497951,0.3854 0.46302,0.51202 -0.08472,0.30711 0.109263,0.35253 0.63844,0.14946 0.240551,-0.0923 0.929246,0.0831 1.530427,0.38981 1.150622,0.587 1.604079,0.53094 1.604079,-0.19832 0,-0.93334 0.873371,0.82546 1.660297,3.34352 1.143101,3.65776 2.089957,11.13422 1.540193,12.16146 -0.324308,0.60597 -1.060133,0.75924 -1.505739,0.31363 -0.251412,-0.25141 -3.608708,-1.53354 -9.643528,-3.68279 -1.534171,-0.54638 -3.022452,-1.1286 -3.307292,-1.29381 -0.456163,-0.26459 -0.403481,-0.30135 0.441987,-0.30844 0.527931,-0.004 1.396375,0.17434 1.929873,0.39725 1.168329,0.48815 1.376881,0.38914 1.541402,-0.73181 0.111723,-0.76121 -0.02837,-1.00991 -1.196475,-2.12399 -0.727657,-0.69401 -1.634075,-1.33463 -2.014262,-1.42361 -0.873514,-0.20444 -2.41104,-1.63773 -2.41104,-2.24759 0,-0.836 0.498719,-0.79007 0.952654,0.0877 l 0.446024,0.86251 0.391265,-0.58928 c 0.531604,-0.80063 1.077101,-0.74121 1.269823,0.13833 0.08769,0.40018 0.199512,0.8614 0.248499,1.02492 0.04899,0.16353 0.532683,0.38055 1.074878,0.48226 1.039651,0.19504 1.425676,-0.0682 1.43364,-0.97771 0.005,-0.56953 -1.901939,-2.57999 -2.447126,-2.57999 -0.218038,0 -0.71428,-0.41672 -1.10276,-0.92604 -0.38848,-0.50933 -0.934204,-0.92605 -1.21272,-0.92605 -0.278516,0 -0.633833,-0.23812 -0.789594,-0.52916 -0.15576,-0.29104 -0.493413,-0.52917 -0.750337,-0.52917 -0.280392,0 -0.703604,-0.44952 -1.058661,-1.12448 -0.888566,-1.68914 -1.681173,-2.92346 -2.490481,-3.87841 -0.400182,-0.4722 -0.727604,-0.96847 -0.727604,-1.10283 0,-0.51279 -0.722394,-0.21446 -1.010192,0.41718 -0.440021,0.96575 -1.037535,0.82013 -1.357146,-0.33073 -0.34829,-1.25413 -0.353407,-2.10528 -0.01392,-2.3151 0.509254,-0.31474 0.255738,-0.95562 -0.815176,-2.06075 -0.593868,-0.61284 -1.25177,-1.44167 -1.462003,-1.84186 -0.586362,-1.11614 -1.559086,-0.97819 -2.724523,0.3864 -0.523282,0.6127 -0.909275,1.23778 -0.857761,1.38906 0.05151,0.15129 0.132244,1.01659 0.179401,1.9229 0.06697,1.28711 -0.01929,1.77756 -0.394065,2.24038 -0.410787,0.5073 -0.541258,0.54154 -0.907005,0.23799 -0.234961,-0.195 -0.429025,-0.48879 -0.431252,-0.65287 -0.0021,-0.16409 -0.106151,-0.45946 -0.230937,-0.65638 -0.323855,-0.51108 -1.235585,0.0259 -1.757463,1.03511 -0.426897,0.82554 -0.335775,1.30731 0.247267,1.30731 0.187139,0 0.549021,0.23069 0.804182,0.51264 0.372872,0.41202 0.423103,0.73659 0.255916,1.65364 -0.114411,0.62756 -0.186936,1.22649 -0.161171,1.33096 0.02577,0.10447 -0.118838,1.05697 -0.321339,2.11667 -0.202504,1.05969 -0.328409,2.51386 -0.279784,3.23149 0.05073,0.74879 -0.06315,1.59785 -0.267258,1.99255 -0.198533,0.38392 -0.265089,0.85949 -0.150649,1.07647 0.112755,0.21379 0.27794,0.77566 0.367075,1.2486 0.181774,0.96447 -0.167738,1.1243 -1.030906,0.47143 -1.172147,-0.88656 -1.257869,-0.0416 -0.08948,0.88204 0.589991,0.4664 0.990729,0.58606 1.57286,0.46964 0.429636,-0.0859 0.781156,-0.054 0.781156,0.071 0,0.78119 -6.26718,5.25625 -10.00047,7.14081 -0.873947,0.44117 -2.274109,1.40165 -3.11147,2.13441 -0.837363,0.73275 -1.618104,1.33228 -1.734982,1.33228 -0.116879,0 -1.065439,0.71438 -2.107911,1.5875 -1.520998,1.27392 -2.077518,1.5875 -2.817343,1.5875 -0.770347,0 -0.892287,-0.0761 -0.741604,-0.46302 z m 14.176918,-9.20106 c 0.429337,-0.22202 0.780611,-0.46118 0.780611,-0.53146 0,-0.23843 -1.452642,-1.76083 -1.918229,-2.01035 -0.417235,-0.22361 -0.463021,-0.0902 -0.463021,1.34867 0,1.77459 0.195059,1.91999 1.600639,1.19314 z m -5.040222,-0.39009 c 0,-0.14552 -0.0525,-0.26458 -0.116676,-0.26458 -0.06417,0 -0.190262,0.11906 -0.280199,0.26458 -0.08994,0.14553 -0.03743,0.26459 0.116676,0.26459 0.154109,0 0.280199,-0.11906 0.280199,-0.26459 z m 1.023175,-1.21255 c 0.05342,-0.27898 0.499907,-0.95407 0.992188,-1.50019 0.935953,-1.03832 1.155136,-1.78517 0.523907,-1.78517 -0.48695,0 -2.274687,2.70384 -2.274687,3.44032 0,0.69821 0.619448,0.57167 0.758592,-0.15496 z m 6.901678,-0.49378 c 0.641464,-0.6828 0.585523,-1.46867 -0.104548,-1.46867 -0.458327,0 -1.306142,1.47555 -1.068628,1.85986 0.246814,0.39935 0.514292,0.31016 1.173176,-0.39119 z m 25.412647,-0.2564 c 0,-0.0609 0.07227,-0.29898 0.1606,-0.52917 0.105386,-0.27463 0.01442,-0.41851 -0.264584,-0.41851 -0.248793,0 -0.425183,0.21953 -0.425183,0.52916 0,0.29105 0.119063,0.52917 0.264584,0.52917 0.145521,0 0.264583,-0.0498 0.264583,-0.11065 z M 33.55684,279.56382 c 0.05371,-0.3663 0.558869,-0.89289 1.318982,-1.37494 1.4648,-0.92895 2.003174,-1.81841 1.762877,-2.91248 -0.09515,-0.43322 -0.05687,-0.93163 0.08507,-1.10757 0.386596,-0.4792 0.622429,-2.38389 0.347414,-2.80584 -0.454996,-0.69809 -1.018382,-0.0671 -1.970165,2.20658 -0.685609,1.63783 -0.909439,2.49923 -0.796343,3.0647 0.147619,0.7381 0.106384,0.78654 -0.669514,0.78654 -0.454753,0 -0.839875,0.0893 -0.85583,0.19844 -0.145579,0.99596 -0.187343,2.11413 -0.08976,2.40326 0.178842,0.52989 0.768011,0.21829 0.867275,-0.45869 z m 33.382744,-0.42276 c 0,-0.1869 -0.625078,-0.99016 -1.389063,-1.78502 -0.763984,-0.79487 -1.573686,-1.71767 -1.799338,-2.05067 -0.353156,-0.52117 -0.491295,-0.5621 -0.992188,-0.29403 -0.32005,0.17128 -0.581911,0.46738 -0.581911,0.65799 0,0.38318 0.722159,1.09064 1.291987,1.26568 0.201268,0.0618 0.498925,0.51128 0.661458,0.9988 0.454308,1.3627 2.809055,2.3747 2.809055,1.20725 z m -5.280237,-5.23199 c -0.357515,-0.18092 -0.719738,-0.62565 -0.804939,-0.98829 -0.231714,-0.98624 -2.116908,-1.71346 -2.116908,-0.8166 0,0.11461 0.42245,0.64336 0.938779,1.17501 0.698363,0.71908 1.155729,0.96562 1.785938,0.96272 l 0.847158,-0.004 -0.650028,-0.32895 z m -30.21081,-1.86777 c 0.21523,-0.25934 0.205134,-0.47192 -0.03823,-0.80473 -0.308401,-0.42177 -0.370991,-0.41477 -0.927425,0.10363 -0.328187,0.30575 -0.527505,0.66788 -0.442931,0.80472 0.225745,0.36527 1.071046,0.30308 1.408581,-0.10362 z m 26.519346,-2.31869 c -0.216268,-0.9589 -1.002067,-2.09138 -1.451163,-2.09138 -0.138102,0 -0.464394,-0.19303 -0.725093,-0.42896 -0.559917,-0.50672 -1.349465,-0.30507 -1.1224,0.28666 0.08588,0.22379 0.302461,0.40689 0.481301,0.40689 0.273341,0 1.142159,0.88173 2.559045,2.59709 0.421153,0.50987 0.496417,0.28543 0.25831,-0.7703 z m 5.664409,-15.32054 c -0.08994,-0.14553 -0.275558,-0.26459 -0.412491,-0.26459 -0.136932,0 -0.248967,0.11906 -0.248967,0.26459 0,0.14552 0.185621,0.26458 0.412491,0.26458 0.226869,0 0.338904,-0.11906 0.248967,-0.26458 z m 7.077604,-1.63327 c 0.254662,-0.13059 0.463021,-0.41184 0.463021,-0.625 0,-0.56306 -3.127063,-0.55577 -3.34332,0.008 -0.08344,0.21744 -0.247555,0.33612 -0.364694,0.26372 -0.117141,-0.0724 -0.40536,-0.0578 -0.640487,0.0324 -0.326887,0.12544 -0.357357,0.24857 -0.129455,0.52318 0.324776,0.39133 3.133375,0.24995 4.014935,-0.20211 z m -42.532969,-0.84668 c 0.473559,-0.34628 0.450347,-0.4175 -0.495761,-1.52136 -0.711538,-0.83017 -1.192397,-1.15807 -1.698304,-1.15807 -0.561782,0 -0.73367,-0.1495 -0.842731,-0.73299 -0.201592,-1.07854 -1.184558,-1.47377 -3.376994,-1.35784 -1.012771,0.0536 -2.146193,0.25551 -2.518717,0.44877 -0.486995,0.25266 -1.183106,0.29905 -2.477336,0.16509 -0.990012,-0.10247 -2.078677,-0.0804 -2.419257,0.0491 -0.624083,0.23728 -1.944902,-0.23152 -2.308122,-0.81923 -0.246793,-0.39932 -0.927205,-0.32088 -0.927205,0.1069 0,0.20534 0.366824,0.68201 0.815164,1.05927 0.61897,0.52082 1.080649,0.67656 1.918229,0.64705 0.705324,-0.0248 2.2479,0.36646 4.278065,1.08522 1.823939,0.64575 3.625354,1.11714 4.233334,1.10776 1.075991,-0.0166 2.274342,0.27517 3.704167,0.90185 1.039717,0.4557 1.511868,0.45982 2.115468,0.0185 z m 45.041,-0.85491 c -0.08792,-0.0879 -0.316124,-0.0973 -0.507119,-0.0209 -0.211066,0.0845 -0.148373,0.14715 0.159853,0.15985 0.278913,0.0115 0.435184,-0.0511 0.347266,-0.13897 z m 1.394574,-0.36931 c 0,-0.14552 -0.171567,-0.26458 -0.38126,-0.26458 -0.209693,0 -0.454845,0.11906 -0.544782,0.26458 -0.08994,0.14552 0.08163,0.26458 0.381259,0.26458 0.29963,0 0.544783,-0.11906 0.544783,-0.26458 z M 8.8830667,249.93574 c -0.1786335,-0.28903 -1.4747333,-0.55584 -1.4747333,-0.30358 0,0.34489 0.3521361,0.53657 0.9857539,0.53657 0.3481366,0 0.5681774,-0.10484 0.4889794,-0.23299 z M 61.11875,249.60363 c 1.236928,-0.15173 2.436927,-0.44384 2.666667,-0.64913 0.22974,-0.2053 0.616694,-0.37327 0.859896,-0.37327 0.243202,0 0.442188,-0.17859 0.442188,-0.39687 0,-0.458 1.712515,-0.57217 1.984375,-0.13229 0.27741,0.44885 1.62806,0.29262 2.285793,-0.26441 0.612968,-0.51912 0.61504,-0.5364 0.111033,-0.92604 -0.654524,-0.50601 -1.315511,-0.50608 -1.735368,-1.8e-4 -0.513503,0.61873 -1.058333,0.47825 -1.058333,-0.27289 0,-0.95412 -0.754555,-1.15617 -1.389489,-0.37206 -0.455851,0.56295 -0.547658,0.58696 -0.82006,0.21442 -0.22579,-0.30878 -0.672129,-0.40082 -1.691246,-0.34876 -1.521632,0.0777 -3.003235,0.82892 -3.683913,1.86777 -0.227663,0.34746 -0.726143,0.78138 -1.107731,0.96427 -0.38159,0.18289 -0.736682,0.55521 -0.789096,0.82737 -0.0829,0.43047 0.01992,0.47163 0.790514,0.31639 0.487196,-0.0982 1.897843,-0.30259 3.13477,-0.45432 z m 14.816667,0.31613 c 0,-0.36869 -0.486394,-0.60244 -0.821997,-0.39503 -0.204134,0.12616 -0.184099,0.24988 0.06615,0.40844 0.472305,0.29927 0.755851,0.29424 0.755851,-0.0134 z m -24.0767,32.5105 c -0.800153,-0.44099 -1.574059,-0.93255 -1.719791,-1.09236 -0.175972,-0.19296 -0.176102,-0.24445 -2.65e-4,-0.15331 0.145521,0.0755 1.068255,0.50582 2.050521,0.95631 0.982266,0.45049 1.785937,0.88245 1.785937,0.95991 0,0.32096 -0.746299,0.0845 -2.116283,-0.67055 z m -9.684067,-2.95892 c 0.239263,-0.32743 0.55917,-0.91149 0.710903,-1.29793 0.435518,-1.10921 2.522355,-1.71671 2.820554,-0.8211 0.07697,0.23118 -0.1123,0.2844 -0.639532,0.17981 -0.660051,-0.13094 -0.869916,0.0105 -1.769512,1.19298 -0.976157,1.28307 -2.023584,1.97945 -1.122413,0.74624 z m -20.456169,-1.12448 c 0.02133,-1.9403 0.465243,-2.78986 0.483871,-0.92605 0.008,0.80037 -0.100871,1.63381 -0.241935,1.85209 -0.183548,0.28402 -0.252345,0.0207 -0.241936,-0.92604 z m 30.838215,0.47787 c -0.09306,-0.0931 -0.169196,-0.60821 -0.169196,-1.14479 0,-0.67393 -0.204536,-1.1963 -0.661458,-1.68933 -0.363802,-0.39255 -0.661458,-0.88992 -0.661458,-1.10527 0,-0.21535 -0.182737,-0.46167 -0.406085,-0.54738 -0.876679,-0.33641 -2.39168,-4.34096 -1.952633,-5.16133 0.30312,-0.56638 1.035801,-0.65542 1.035801,-0.12587 0,0.19866 0.264001,0.69682 0.586669,1.10702 0.322667,0.41021 0.806005,1.39553 1.074084,2.18961 0.612341,1.81381 1.228526,2.67319 1.924351,2.68386 1.239626,0.019 1.56962,1.27796 0.515938,1.96836 -0.403683,0.2645 -0.661459,0.68272 -0.661459,1.07315 0,0.65872 -0.32568,1.05084 -0.624554,0.75197 z M 22.002193,274.5104 c 0,-0.3638 0.06005,-0.51263 0.133452,-0.33073 0.0734,0.1819 0.0734,0.47956 0,0.66146 -0.0734,0.1819 -0.133452,0.0331 -0.133452,-0.33073 z m 0.20025,-1.78853 c -0.06362,-0.55241 0.08466,-3.04449 0.271412,-4.56147 0.254998,-2.07132 0.09858,-2.42952 -1.524438,-3.49097 -0.680878,-0.44529 -0.999834,-0.72041 -0.708792,-0.61139 0.291042,0.10902 1.033912,0.31212 1.650824,0.45132 1.86196,0.42016 2.650198,1.90624 1.79622,3.38646 -0.65824,1.14094 -0.861611,1.68631 -1.052006,2.82114 -0.150555,0.89737 -0.10554,1.11789 0.243045,1.19062 0.366542,0.0765 0.350364,0.15523 -0.112942,0.54971 -0.297421,0.25324 -0.550916,0.3723 -0.563323,0.26458 z m 43.785691,-2.11813 c -0.159493,-0.10691 -0.372668,-0.53195 -0.47372,-0.94454 -0.101053,-0.41258 -0.470993,-1.01638 -0.822087,-1.34176 -0.462817,-0.42892 -0.594059,-0.76101 -0.477261,-1.20764 0.112369,-0.42971 0.01053,-0.72613 -0.336711,-0.98004 -0.485807,-0.35523 -0.486019,-0.39718 -0.0088,-1.74092 0.562798,-1.58459 1.030536,-2.02957 2.143953,-2.0396 l 0.79375,-0.007 -0.992187,0.91129 c -1.266442,1.16318 -1.275779,1.83449 -0.06615,4.75665 1.126159,2.72051 1.172136,3.21909 0.239175,2.59371 z m -21.611542,-3.66328 c -0.407062,-0.40706 -0.187545,-1.16131 0.337992,-1.16131 0.291041,0 0.529166,0.0963 0.529166,0.21401 0,0.4013 -0.675372,1.13909 -0.867158,0.9473 z m -9.131906,-5.30897 c -0.261096,-0.10476 -0.269632,-0.22406 -0.03617,-0.50537 0.351094,-0.42304 0.774814,-0.25733 0.774814,0.30302 0,0.3945 -0.154361,0.43679 -0.738648,0.20235 z m -12.354109,-1.0454 c -0.220546,-0.22054 -0.400993,-0.57647 -0.400993,-0.79095 0,-0.30051 -0.207218,-0.3511 -0.903262,-0.22052 -0.746074,0.13997 -0.954888,0.073 -1.199933,-0.38488 -0.226621,-0.42345 -0.55115,-0.55434 -1.374386,-0.55434 -0.94662,0 -1.218706,-0.15287 -2.236827,-1.25677 -0.637514,-0.69123 -1.160385,-1.4015 -1.161937,-1.57839 -0.0016,-0.18322 -0.543758,-0.39337 -1.259942,-0.48838 -0.715184,-0.0949 -1.593639,-0.43509 -2.03774,-0.78921 -0.766269,-0.611 -0.771589,-0.63242 -0.289373,-1.16526 0.402569,-0.44484 0.81235,-0.54282 2.270052,-0.54282 1.537107,0 1.831116,0.0788 2.163797,0.57983 0.211747,0.3189 0.963098,0.77322 1.66967,1.00959 1.509839,0.50508 1.757102,0.92758 0.798472,1.36437 -0.390373,0.17786 -0.658395,0.49294 -0.614264,0.72209 0.120221,0.62426 1.774586,1.61578 2.695947,1.61578 0.547745,0 0.938496,0.18451 1.167567,0.55131 0.199858,0.32002 0.507606,0.48864 0.733573,0.40193 0.250322,-0.0961 0.478359,0.0849 0.63884,0.50702 0.300887,0.7914 0.432986,0.80296 1.453287,0.12724 0.436563,-0.28912 0.908561,-0.52646 1.048884,-0.52742 0.477979,-0.003 -0.596949,0.85216 -1.680339,1.3372 -0.965019,0.43205 -1.122823,0.44085 -1.481093,0.0826 z m 29.761507,-3.02464 c 0,-0.15411 0.119062,-0.20661 0.264583,-0.11668 0.145521,0.0899 0.264583,0.21603 0.264583,0.2802 0,0.0642 -0.119062,0.11668 -0.264583,0.11668 -0.145521,0 -0.264583,-0.12609 -0.264583,-0.2802 z M 30.294792,242.10648 c -0.145521,-0.0456 -1.127787,-0.23393 -2.182813,-0.41843 -1.055026,-0.1845 -1.918229,-0.44487 -1.918229,-0.57861 0,-0.13375 0.327422,-0.17825 0.727604,-0.0989 2.625892,0.52064 2.661891,0.51773 3.459216,-0.27959 l 0.76255,-0.76255 0.265136,0.99333 c 0.145823,0.54634 0.202997,1.05547 0.127051,1.13142 -0.145812,0.14581 -0.795811,0.15279 -1.240515,0.0133 z M 18.25625,241.1729 c 0.363802,-0.11651 1.19724,-0.21001 1.852083,-0.20778 l 1.190626,0.004 -1.058334,0.21891 c -0.582083,0.1204 -1.415521,0.21391 -1.852083,0.20779 -0.77493,-0.0109 -0.778066,-0.0161 -0.132292,-0.22297 z m 6.35,-0.26458 c 0,-0.33151 0.280787,-0.33151 0.79375,0 0.320929,0.20739 0.282956,0.25725 -0.198437,0.26053 -0.327422,0.002 -0.595313,-0.11501 -0.595313,-0.26053 z m 43.768373,-0.46562 c 0.106881,-0.33676 -0.07545,-0.56442 -0.658826,-0.82265 -0.443632,-0.19637 -0.741447,-0.42219 -0.661813,-0.50183 0.172525,-0.17252 2.26685,0.73623 2.26685,0.98361 0,0.24987 -0.596651,0.80649 -0.864497,0.80649 -0.126222,0 -0.162994,-0.20953 -0.08171,-0.46562 z m -11.555352,-1.14308 c -0.309324,-0.18016 -0.462692,-0.59467 -0.462031,-1.24872 l 0.0011,-0.97904 0.524288,0.85989 c 0.380323,0.62378 0.725152,0.86501 1.255781,0.8785 0.402323,0.0102 0.964047,0.10956 1.248275,0.22075 0.437611,0.1712 0.381876,0.22915 -0.363802,0.37828 -1.17756,0.23552 -1.651359,0.21194 -2.2035,-0.10966 z M 31.359422,236.4104 c 0.07845,-0.65484 0.436007,-2.08359 0.794568,-3.175 0.358558,-1.09141 0.588431,-1.56766 0.510826,-1.05833 -0.332113,2.17967 -0.609505,3.37216 -1.015514,4.36562 l -0.432522,1.05833 z m 1.614308,-6.01927 c 0.418888,-1.30356 0.715306,-1.91823 0.925036,-1.91823 0.38031,0 0.264467,1.02814 -0.19482,1.7291 -0.492988,0.75239 -0.949185,0.87055 -0.730216,0.18913 z m 13.923666,-1.41181 c -1.221465,-1.16813 -1.319294,-1.43931 -0.747863,-2.07309 0.297048,-0.32945 0.32717,-0.7531 0.142586,-2.00521 -0.399576,-2.71047 -0.558342,-3.26069 -1.076057,-3.72922 -0.275813,-0.24961 -0.501478,-0.66559 -0.501478,-0.92442 0,-0.31626 -0.237869,-0.49804 -0.725342,-0.5543 -0.920703,-0.10627 -1.07101,-0.80091 -0.332992,-1.53893 0.865918,-0.86592 1.440628,-0.59336 1.53651,0.72869 0.05684,0.7837 0.235963,1.20377 0.595312,1.39609 0.282705,0.1513 0.514012,0.50902 0.514012,0.79495 0,0.28592 0.238125,0.75798 0.529166,1.04902 0.383831,0.38383 0.537549,0.91067 0.559687,1.91823 0.01677,0.76398 0.05247,1.50812 0.0793,1.65364 0.307165,1.66611 0.538009,2.47584 0.845921,2.96726 0.456612,0.72873 0.474125,1.39929 0.03645,1.39552 -0.181901,-0.002 -0.836745,-0.48677 -1.455209,-1.07823 z"
         style="display:inline;fill:#d6cf28;stroke:none;stroke-width:0;stroke-linecap:round;stroke-linejoin:round;stroke-miterlimit:4;stroke-dasharray:none;stroke-opacity:1;paint-order:normal" />
      <path
         inkscape:connector-curvature="0"
         id="path4510"
         d="m 19.181047,296.53696 c 0.508801,-1.25537 0.68397,-2.07327 1.203432,-5.61901 0.57894,-3.95174 0.817285,-4.82209 1.166004,-4.25785 0.146863,0.23763 0.284327,0.23517 0.580207,-0.0104 0.312946,-0.25972 0.496586,-0.21296 0.951945,0.2424 0.531619,0.53162 0.538425,0.59268 0.117865,1.05739 -0.592823,0.65506 -0.614005,2.02769 -0.02782,1.80275 0.230184,-0.0883 0.519743,-0.16059 0.643466,-0.16059 0.123722,0 0.637218,-0.80367 1.141101,-1.78594 0.503882,-0.98227 1.399601,-2.60833 1.990485,-3.61349 0.590884,-1.00515 1.15406,-2.19577 1.251501,-2.64583 0.192021,-0.88688 1.630399,-3.67997 3.433355,-6.66698 0.624102,-1.03397 1.264952,-2.34365 1.424112,-2.91041 0.159162,-0.56676 0.466047,-1.26159 0.681966,-1.54407 0.215921,-0.28247 0.392583,-0.72432 0.392583,-0.98189 0,-0.25756 0.535782,-1.1261 1.190625,-1.93007 0.654844,-0.80397 1.190625,-1.61395 1.190625,-1.79996 0,-0.34351 0.533609,-1.84711 1.552782,-4.37543 0.858827,-2.13053 0.771287,-2.58231 -0.67854,-3.50176 -0.683334,-0.43336 -1.37817,-0.78792 -1.544079,-0.78792 -0.16591,0 -0.82721,-0.40197 -1.469554,-0.89328 -0.642345,-0.4913 -1.525088,-0.96757 -1.96165,-1.05837 -2.60168,-0.54114 -5.131187,-0.95809 -5.814283,-0.95841 -0.924966,-4.2e-4 -4.372176,-1.2981 -4.372176,-1.64587 0,-0.28979 2.10752,-0.021 3.571875,0.45558 1.845313,0.60055 3.514236,0.74884 4.38208,0.38937 0.701651,-0.29064 0.78196,-0.42797 0.636788,-1.08893 -0.09904,-0.45094 -0.05582,-0.75634 0.107035,-0.75634 0.429604,0 1.6363,0.57686 3.076181,1.47056 0.727604,0.45161 1.858698,1.00856 2.513541,1.23767 0.654844,0.22912 1.715873,0.6125 2.357845,0.85197 0.641972,0.23947 1.592456,0.39959 2.112182,0.35583 0.843378,-0.071 1.030772,-0.23601 1.743197,-1.53478 l 0.798235,-1.45521 -0.04824,-4.43632 c -0.02975,-2.736 0.04775,-4.37699 0.202219,-4.28153 0.137752,0.0851 0.489304,0.62297 0.781222,1.19518 0.500927,0.9819 0.598823,1.04038 1.741548,1.04038 h 1.210784 l -0.167863,1.38906 c -0.501097,4.14663 -0.483999,4.88932 0.126614,5.49993 0.738862,0.73886 2.02106,0.60608 4.371967,-0.45276 1.427038,-0.64273 1.682787,-0.86518 1.82182,-1.58459 0.232053,-1.20073 2.950131,-3.7236 3.461158,-3.21257 0.05494,0.0549 -0.326419,0.71154 -0.847458,1.4591 -0.740039,1.06178 -0.908777,1.5129 -0.771091,2.06149 0.173953,0.69308 0.201213,0.70076 2.08429,0.58711 2.379858,-0.14363 7.533727,-1.05485 8.306784,-1.46866 0.317855,-0.17015 0.906349,-0.30936 1.307767,-0.30936 0.401418,0 1.86776,-0.36147 3.258539,-0.80327 6.820265,-2.16655 7.773496,-2.51984 7.879631,-2.92037 0.146351,-0.55229 1.788982,-1.28815 2.238779,-1.00292 0.191281,0.1213 0.899637,0.22236 1.574123,0.22459 1.009015,0.003 1.302065,0.11962 1.653646,0.6562 0.235019,0.35869 0.413859,0.74564 0.397423,0.8599 -0.05359,0.37262 -3.142515,3.07667 -3.316187,2.90299 -0.09291,-0.0929 -0.01593,-0.35327 0.171069,-0.57858 0.637759,-0.76845 0.075,-0.67924 -0.785419,0.12451 -0.471924,0.44084 -1.009467,0.80153 -1.19454,0.80153 -0.185074,0 -0.484717,0.1786 -0.665875,0.39688 -0.181157,0.21828 -0.556659,0.39687 -0.834451,0.39687 -0.277791,0 -0.573606,0.1786 -0.657367,0.39688 -0.16436,0.4283 -1.154015,0.55705 -1.154015,0.15012 0,-0.13572 0.228865,-0.31939 0.508585,-0.40817 0.823571,-0.26139 2.499931,-2.26323 2.17084,-2.59232 -0.349716,-0.34972 -2.834786,0.14471 -4.472752,0.88988 -0.622528,0.28322 -1.872684,0.58662 -2.778125,0.67423 -1.980198,0.1916 -4.695529,0.99364 -6.144173,1.81483 -0.610727,0.34621 -1.785694,0.6798 -2.778125,0.78876 -3.524539,0.38698 -5.671556,0.90311 -6.14417,1.47703 -0.250598,0.30431 -0.563557,0.48659 -0.695468,0.40507 -0.131911,-0.0815 -0.596874,0.0299 -1.033248,0.24757 -0.436375,0.2177 -1.637652,0.50182 -2.669503,0.63138 -2.475275,0.31081 -3.850691,0.98163 -3.960215,1.93148 -0.115573,1.00232 1.129112,3.01524 2.373784,3.83893 0.563967,0.37321 1.076023,0.92929 1.137904,1.23572 0.06188,0.30644 0.185544,1.01028 0.274804,1.5641 0.08926,0.55382 0.375896,1.22055 0.636968,1.48162 0.26107,0.26107 0.605801,0.85082 0.766067,1.31056 0.408784,1.17264 4.284054,5.80459 7.225443,8.63629 4.442404,4.27673 5.791801,5.88093 5.791801,6.88544 0,0.71259 0.235762,1.11161 1.179377,1.99603 0.648655,0.60797 1.56967,1.37284 2.046695,1.6997 0.78857,0.54034 0.896935,0.55541 1.193459,0.16594 0.281556,-0.36981 0.327784,-0.31986 0.338166,0.36539 0.0066,0.43656 0.07563,1.03187 0.153377,1.32292 0.07774,0.29104 -0.03026,0.76306 -0.239991,1.04893 -0.37583,0.51225 -0.401828,0.50964 -1.798608,-0.17995 -0.779497,-0.38484 -1.653813,-0.87587 -1.94292,-1.09118 -0.512958,-0.38201 -0.513781,-0.40459 -0.03406,-0.93468 0.490984,-0.54253 0.429924,-1.35667 -0.101748,-1.35667 -0.154655,0 -0.349724,0.1786 -0.433486,0.39688 -0.221906,0.57827 -1.350364,0.48958 -1.683181,-0.13229 -0.24901,-0.46528 -0.201213,-0.52917 0.395869,-0.52917 0.373489,0 0.743175,-0.16705 0.821524,-0.37122 0.240551,-0.62687 -0.908878,-2.50405 -2.030992,-3.31691 -1.22936,-0.89054 -1.808766,-1.58087 -2.567252,-3.05874 -0.298741,-0.58209 -2.182075,-2.66568 -4.185182,-4.63021 -2.573158,-2.52361 -3.859871,-3.99895 -4.384331,-5.02708 -0.408276,-0.80037 -1.162204,-1.99099 -1.6754,-2.64584 -0.513194,-0.65484 -1.25898,-1.71315 -1.657305,-2.3518 -1.189218,-1.90673 -1.851329,-2.58903 -3.308228,-3.4091 -2.298634,-1.29387 -2.40329,-1.29416 -3.910995,-0.0108 l -1.340969,1.14146 0.155607,1.45521 c 0.143285,1.33996 0.12355,1.41453 -0.249201,0.94162 -0.222646,-0.28247 -0.404812,-0.6099 -0.404812,-0.7276 0,-0.11771 -0.119063,-0.21402 -0.264583,-0.21402 -0.145521,0 -0.264584,0.13053 -0.264584,0.29007 0,0.15954 -0.645848,1.0257 -1.435213,1.9248 -0.789369,0.8991 -1.523527,1.98896 -1.631464,2.42191 -0.107934,0.43295 -0.41452,1.14437 -0.681302,1.58093 -0.266779,0.43656 -0.616019,1.12171 -0.776086,1.52255 -0.7077,1.77221 -5.705279,11.35037 -6.788111,13.00982 -0.657616,1.0078 -1.580451,2.67672 -2.050743,3.70871 -0.470291,1.03199 -1.168371,2.24867 -1.551287,2.70374 -0.819912,0.97441 -0.901936,1.67705 -0.195772,1.67705 0.336879,0 0.638839,-0.34589 0.923899,-1.05833 0.28074,-0.70164 0.58871,-1.05833 0.913763,-1.05833 0.525162,0 1.366066,0.77692 1.366066,1.26212 0,0.16193 -0.779462,0.92646 -1.732136,1.69896 -0.952674,0.7725 -2.497484,2.08915 -3.432909,2.9259 -1.409363,1.26068 -1.865436,1.52135 -2.661797,1.52135 -0.810361,0 -0.931603,-0.0726 -0.773361,-0.46302 z m 3.57312,-5.78299 c 0,-0.21675 -0.272463,-0.36857 -0.661458,-0.36857 -0.712514,0 -0.837649,0.24714 -0.364635,0.72016 0.369089,0.36909 1.026093,0.14396 1.026093,-0.35159 z m 6.53783,-3.17935 c -0.250798,-0.2508 0.317431,-0.89339 0.790009,-0.89339 0.509061,0 0.329465,0.89632 -0.20003,0.9983 -0.223705,0.0431 -0.489196,-0.004 -0.589979,-0.10491 z m 8.278837,-3.14235 c 0,-0.22812 0.238783,-0.39687 0.561562,-0.39687 0.46917,0 0.507373,0.0653 0.232188,0.39687 -0.181158,0.21828 -0.433861,0.39688 -0.561563,0.39688 -0.127703,0 -0.232187,-0.1786 -0.232187,-0.39688 z m -13.49375,-0.13028 c 0,-0.48126 0.522549,-1.32493 0.820633,-1.32493 0.47579,0 0.140118,1.44411 -0.357613,1.5385 -0.254661,0.0483 -0.46302,-0.0478 -0.46302,-0.21357 z m 7.9375,-0.88704 c 0,-0.34272 0.566869,-0.94681 1.25677,-1.3393 0.237877,-0.13532 0.33073,0.0762 0.33073,0.75351 0,0.86989 -0.06049,0.94165 -0.79375,0.94165 -0.488516,0 -0.79375,-0.13684 -0.79375,-0.35586 z m 29.633333,-0.96705 c 0,-0.29104 0.119063,-0.52917 0.264583,-0.52917 0.145521,0 0.264584,0.23813 0.264584,0.52917 0,0.29104 -0.119063,0.52916 -0.264584,0.52916 -0.14552,0 -0.264583,-0.23812 -0.264583,-0.52916 z m -36.239502,-0.30868 c 0.0046,-0.19403 0.191759,-0.59091 0.415846,-0.88195 0.392482,-0.50975 0.404308,-0.50079 0.322314,0.24418 -0.08317,0.75563 -0.754813,1.33593 -0.73816,0.63777 z m 41.812765,-0.73354 c -0.314812,-0.19921 -0.32059,-0.31178 -0.03375,-0.65741 0.525672,-0.63339 1.075069,-0.50849 1.075069,0.24442 0,0.68227 -0.378519,0.83239 -1.041321,0.41299 z m -31.068651,-1.52261 c -0.316219,-0.31622 -0.170844,-0.87476 0.22768,-0.87476 0.218281,0 0.396875,0.17157 0.396875,0.38126 0,0.44203 -0.377635,0.74042 -0.624555,0.4935 z m 23.290528,-9.25323 c -0.322244,-0.32224 -0.182319,-0.88194 0.220485,-0.88194 0.220485,0 0.396875,0.23518 0.396875,0.52917 0,0.52711 -0.281924,0.68821 -0.61736,0.35277 z m -21.60764,-0.32155 c 0,-0.14552 0.119062,-0.33816 0.264583,-0.4281 0.145521,-0.0899 0.264584,-0.0445 0.264584,0.10106 0,0.14552 -0.119063,0.33817 -0.264584,0.42811 -0.145521,0.0899 -0.264583,0.0444 -0.264583,-0.10107 z m 0.550055,-1.2439 c 0.0127,-0.30822 0.07539,-0.37092 0.159851,-0.15985 0.07643,0.19099 0.06703,0.4192 -0.02088,0.50712 -0.08792,0.0879 -0.150453,-0.0684 -0.138965,-0.34727 z m -7.462826,-0.83785 c 0.56606,-1.05008 1.917401,-1.99098 2.524757,-1.75791 0.333862,0.12811 0.186571,0.37522 -0.703728,1.18063 -1.197965,1.08374 -2.27873,1.42635 -1.821029,0.57728 z m 16.966938,-2.78757 c 0,-0.7307 0.352449,-0.95356 0.67715,-0.42818 0.09857,0.15948 -0.01347,0.48265 -0.24897,0.71815 -0.394517,0.39452 -0.42818,0.37173 -0.42818,-0.28997 z m 4.916871,-0.35915 c -0.09175,-0.23911 -0.104315,-0.49726 -0.02791,-0.57366 0.183525,-0.18353 1.461037,0.50595 1.461037,0.78853 0,0.41156 -1.265558,0.22181 -1.433129,-0.21487 z m -21.45333,-8.03192 c 0.08994,-0.14552 0.33509,-0.26458 0.544783,-0.26458 0.209693,0 0.381259,0.11906 0.381259,0.26458 0,0.14552 -0.245152,0.26458 -0.544782,0.26458 -0.299631,0 -0.471197,-0.11906 -0.38126,-0.26458 z m 33.270437,-0.56977 c -0.506402,-0.50641 -0.392198,-1.01773 0.227306,-1.01773 0.306416,0 0.910862,-0.29766 1.343218,-0.66146 0.432353,-0.3638 1.000204,-0.66146 1.261893,-0.66146 0.261686,0 0.877628,-0.0796 1.368761,-0.17691 0.803987,-0.15929 0.857562,-0.13386 0.537647,0.25518 -0.517689,0.62954 -3.017375,2.24291 -3.766307,2.43088 -0.369136,0.0926 -0.783093,0.0209 -0.972518,-0.1685 z m -8.767345,-0.32117 c -0.508598,-0.61282 0.267645,-1.04145 0.981086,-0.54173 0.317505,0.22239 0.577281,0.51665 0.577281,0.65392 0,0.38363 -1.219751,0.29582 -1.558367,-0.11219 z m -38.856738,-0.60721 c -0.509552,-0.20561 -0.391526,-0.61852 0.176798,-0.61852 0.748527,0 1.362495,0.28609 1.19513,0.55689 -0.155783,0.25207 -0.825436,0.28215 -1.371928,0.0616 z m -7.9532766,-3.46279 c 0.049043,-0.25466 0.2645024,-0.46302 0.4787977,-0.46302 0.2142953,0 0.4297545,0.20836 0.4787979,0.46302 0.06256,0.32487 -0.080296,0.46302 -0.4787979,0.46302 -0.398502,0 -0.5413616,-0.13815 -0.4787977,-0.46302 z m 10.7507646,0.0108 c -0.765576,-0.11713 -1.628101,-0.87069 -0.996586,-0.87069 0.565481,0 2.101702,0.61903 2.101702,0.8469 0,0.11628 -0.0893,0.19359 -0.198437,0.17179 -0.109141,-0.0218 -0.517146,-0.0884 -0.906679,-0.148 z M 3.2826368,250.65953 C 1.7587114,249.4915 1.4356524,249.34252 1.0071013,249.61016 0.43884274,249.96504 0,249.79352 0,249.21653 c 0,-0.60925 0.93816033,-2.29102 1.6468671,-2.9522 0.5237923,-0.48867 5.9214815,-2.69544 6.6210592,-2.70693 0.3186999,-0.005 2.3154067,2.02244 2.3154067,2.35132 0,0.1649 -0.414114,0.4973 -0.920254,0.73866 -0.8583391,0.40932 -0.9531983,0.40903 -1.4098961,-0.004 -0.7860623,-0.71138 -1.4242698,-0.5744 -1.3254445,0.28448 0.072912,0.63368 0.2243574,0.74638 1.173145,0.87303 0.619695,0.0827 1.4440501,0.44382 1.9118916,0.83748 0.452356,0.38063 1.182505,0.77113 1.622554,0.86779 0.440048,0.0967 0.800088,0.2958 0.800088,0.44255 0,0.37845 -2.144739,-0.01 -2.6845749,-0.48617 -0.5223386,-0.46077 -4.501881,-1.28737 -5.0975099,-1.0588 -0.6866031,0.26347 -0.5288765,1.23611 0.2004523,1.23611 0.3412482,0 0.8289187,0.23035 1.0837119,0.51189 0.4416766,0.48805 0.4405053,0.54313 -0.025138,1.18231 -0.2686198,0.36873 -0.5705798,0.67416 -0.6710225,0.67873 -0.1004427,0.005 -0.9818571,-0.60426 -1.9586985,-1.35297 z m 4.5887174,-5.84861 c -0.060634,-0.1819 -0.2689931,-0.33073 -0.4630208,-0.33073 -0.1940277,0 -0.4023871,0.14883 -0.4630208,0.33073 -0.065581,0.19674 0.1220022,0.33073 0.4630208,0.33073 0.3410185,0 0.5286012,-0.13399 0.4630208,-0.33073 z m 7.4744788,6.01524 c -0.654843,-0.19448 -1.547812,-0.48102 -1.984375,-0.63675 l -0.79375,-0.28314 0.79375,0.13249 c 0.436563,0.0729 1.448594,0.20892 2.248959,0.30231 0.800364,0.0934 1.69006,0.33096 1.9771,0.52791 0.491079,0.33694 0.475457,0.35669 -0.264583,0.33443 -0.432561,-0.013 -1.322257,-0.18278 -1.977101,-0.37725 z m -2.264534,-4.20954 c -0.494295,-0.36294 -0.48454,-0.38819 0.259641,-0.67225 0.961025,-0.36683 1.475727,-0.18829 1.475727,0.51189 0,0.64835 -0.951079,0.73624 -1.735368,0.16036 z m 4.708006,0.18987 c -1.016184,-0.19531 -0.365344,-0.60698 0.945581,-0.59809 1.148834,0.008 1.202953,0.0373 0.727565,0.39687 -0.521543,0.39448 -0.611438,0.40529 -1.673146,0.20122 z m 53.517597,-0.97851 c -1.585185,-0.30404 -1.585494,-0.30428 -0.79375,-0.62516 1.418818,-0.57502 2.980172,-0.52759 3.220165,0.0978 0.141631,0.36909 -0.332894,0.94614 -0.708316,0.86137 -0.07276,-0.0164 -0.845905,-0.16674 -1.718099,-0.33403 z m -49.214193,-0.95091 c -0.08994,-0.14553 0.08866,-0.26459 0.396875,-0.26459 0.308218,0 0.486811,0.11906 0.396875,0.26459 -0.08994,0.14552 -0.268531,0.26458 -0.396875,0.26458 -0.128345,0 -0.306939,-0.11906 -0.396875,-0.26458 z m 16.53115,-2.51994 c -0.184075,-0.2218 -0.267832,-0.47012 -0.186123,-0.55183 0.08171,-0.0817 0.281455,0.0998 0.443886,0.40327 0.346564,0.64756 0.217911,0.72171 -0.257763,0.14856 z m 4.690433,-0.48128 c -0.447728,-1.6064 -1.217797,-9.27084 -1.047572,-10.42639 0.229581,-1.55846 0.59578,-0.89595 0.59578,1.07786 0,1.06576 0.184722,3.01311 0.410491,4.32744 0.424645,2.47208 0.457906,6.51582 0.0413,5.02109 z m -5.80967,-7.27757 c -0.08003,-0.30603 -0.04118,-1.00577 0.08633,-1.55497 0.127513,-0.54919 0.23468,-1.46883 0.238151,-2.04364 0.0097,-1.61173 0.465616,-0.78993 0.653148,1.1774 0.137737,1.44496 0.08435,1.82029 -0.334092,2.34872 -0.493403,0.62309 -0.499377,0.62376 -0.643538,0.0725 z m 0.599429,-14.65819 c -0.0022,-0.40019 0.115012,-0.72761 0.260533,-0.72761 0.334541,0 0.334541,0.54067 0,1.05834 -0.199861,0.30926 -0.257374,0.23625 -0.260533,-0.33073 z m 2.277594,-0.34096 c -0.255317,-0.66535 -0.179998,-0.83702 0.131903,-0.30066 0.154435,0.26558 0.225055,0.5386 0.156932,0.60673 -0.06812,0.0681 -0.198099,-0.0696 -0.288835,-0.30607 z m -0.671502,-2.19642 c -0.219741,-0.41059 -0.55481,-0.57148 -1.19018,-0.57148 -0.486384,0 -1.010018,-0.15143 -1.16363,-0.33653 -0.379992,-0.45786 -0.963657,-3.73208 -0.759925,-4.26299 0.34323,-0.89445 3.398861,-0.10797 4.558355,1.17326 0.36971,0.40853 0.348247,0.43547 -0.255005,0.32016 -0.5421,-0.10363 -0.690415,4.5e-4 -0.837885,0.58802 -0.09855,0.39267 -0.03933,1.18073 0.131598,1.75124 0.384897,1.28468 0.02352,2.28535 -0.483328,1.33832 z"
         style="display:inline;fill:#b2a606;stroke:none;stroke-width:0;stroke-linecap:round;stroke-linejoin:round;stroke-miterlimit:4;stroke-dasharray:none;stroke-opacity:1;paint-order:normal" />
    </g>
  </g>
</svg>
